<?xml version="1.0" encoding="UTF-8"?>
<svg id="Layer_1" data-name="Layer 1" xmlns="http://www.w3.org/2000/svg" viewBox="0 0 83.17 104.4">
  <defs>
    <style>
      .cls-1 {
        fill: #32a0c5;
        stroke: #32a0c5;
        stroke-miterlimit: 10;
        stroke-width: 2px;
      }
    </style>
  </defs>
  <path class="cls-1" d="m36.62,79.35c7.17-19.65-5.45-26.69-17.82-34.4-5.18-3.22-9.83-7.74-13.71-12.5C-.31,25.82-.65,18.22,5.83,12.01c6.74-6.46,12.61-2.22,17.96,2.86.93.88,1.91,1.71,3.32,2.96C33.06,6.85,40.79-1,54.46,1.45c13.1,2.35,18.55,13.38,11.88,24.94-3.27,5.67-8,10.52-11.13,16.25-6.23,11.42-11.81,23.2-18.6,36.71Zm4.9-21.4c6.62-9.73,14.54-20.16,20.98-31.44,2.42-4.23,3.33-11.37,1.35-15.44-1.69-3.48-8.35-5.66-13.09-6.28-8.37-1.09-14.2,3.91-18.14,11.05-1.32,2.4-2.43,4.91-4.92,10.01-3.07-4.23-4.44-7.96-7.05-9.29-3.53-1.8-10.46-3.62-11.57-2.14-2.48,3.28-4.2,9.47-2.67,12.9,2.24,5.04,7.2,9.16,11.67,12.86,7.66,6.34,15.85,12.06,23.44,17.76Z"/>
</svg>