<?xml version="1.0" encoding="UTF-8"?>
<svg id="Layer_1" data-name="Layer 1" xmlns="http://www.w3.org/2000/svg" viewBox="0 0 33.49 78.15">
  <defs>
    <style>
      .cls-1 {
        fill: #31a0c5;
      }
    </style>
  </defs>
  <path class="cls-1" d="m15.03,21.53c1.36,7.05,3.08,14.34,4.09,21.74.53,3.92,2.34,4.26,5.37,3.5.32-.08.62-.29.94-.33,2.55-.34,5.59-2.24,7.53-.04,1.82,2.07-1.59,3.51-2.29,5.45-2.73,7.54-5.03,15.15-5.94,23.15-.16,1.37.16,3.25-2.19,3.15-1.81-.08-3.34.02-4.15-2.47-3.15-9.72-8.97-17.71-16.81-24.23-.76-.63-1.83-.98-1.52-2.24.35-1.41,1.52-1.64,2.73-1.67,2.49-.07,4.98-.15,7.47-.12,3,.03,4.08-1.06,3.51-4.27-2.04-11.49-4.11-22.93-9.75-33.37-1.03-1.9-1.81-3.93-2.68-5.91C.66,2.32.52.84,2.52.26c1.47-.43,2.96-.54,3.76,1.32,2.85,6.55,5.74,13.09,8.75,19.95Zm5.31,44.63c1.62-5.06,2.97-9.27,4.3-13.48.36-1.14.66-2.8-1.1-2.39-4.54,1.04-9.16.38-14.23.32,3.81,5.38,7.11,10.04,11.02,15.55Z"/>
</svg>