<?xml version="1.0" encoding="UTF-8"?>
<svg id="Layer_1" data-name="Layer 1" xmlns="http://www.w3.org/2000/svg" viewBox="0 0 210.09 83.36">
  <defs>
    <style>
      .cls-1 {
        fill: #31a0c5;
      }
    </style>
  </defs>
  <path class="cls-1" d="m98.49,53.01c12.49,7.58,24.13,9.87,34.78,14.51,3.21,1.4,7.29,1.64,8.44,6.05.72,2.76,2.09,5.81.38,8.23-2.12,2.99-5.09.92-7.66-.04-30.55-11.43-62.03-18.66-94.54-21.7-9.77-.91-19.46-.84-29.13-.21-6.79.44-9.92-2.28-10.66-8.53-.89-7.62,5.08-5.34,9.01-6.23,23.31-5.3,47.08-9.39,66.2-25.59,4.67-3.95,9.2-7.99,12.26-13.37,1.83-3.2,3.56-7.47,8.03-4.22,3.72,2.7,3.9,6.77.93,10.73-8.89,11.86-19.47,21.66-33.18,27.74-3.89,1.72-7.76,3.47-13.69,6.13,3.77,1.24,5.36,2.39,6.59,2.09,42.14-10.24,84.9-18.37,124.93-35.86,5.9-2.58,11.25-6.42,16.93-9.54,3.65-2.01,7.52-6.29,10.95.41,2.8,5.47-.59,8.03-4.57,10.75-18.37,12.55-39.34,19-60.2,25.58-14.26,4.5-28.75,8.24-45.81,13.07Z"/>
</svg>