<?xml version="1.0" encoding="UTF-8"?>
<svg id="Layer_1" data-name="Layer 1" xmlns="http://www.w3.org/2000/svg" viewBox="0 0 12.84 26.9">
  <defs>
    <style>
      .cls-1 {
        fill: #333;
      }
    </style>
  </defs>
  <path class="cls-1" d="m2.93,20.12c0-1.34,0-2.69,0-4.03.01-1.34.27-2.67-1.91-2.6-1.53.05-.87-1.44-.88-2.24-.01-.8-.61-2.25.94-2.21,1.92.05,1.84-1,1.88-2.35C3.09,1.56,6.61-.94,11.74.32c1.85.46.77,1.87.98,2.83.24,1.07-.09,1.85-1.48,1.78-.9-.05-1.95-.28-2.49.9-.79,1.69.01,2.99,1.95,3.17.82.08,2.3-.45,1.91,1.2-.29,1.22.73,3.52-1.89,3.33-1.91-.14-2.23.71-2.18,2.34.09,3.07-.03,6.14.04,9.21.06,2.58-1.82,1.62-3.04,1.72-1.25.09-2.82.5-2.63-1.79.14-1.62.03-3.26.02-4.89Z"/>
</svg>