<?xml version="1.0" encoding="UTF-8"?>
<svg id="Layer_1" data-name="Layer 1" xmlns="http://www.w3.org/2000/svg" viewBox="0 0 216.31 32.01">
  <defs>
    <style>
      .cls-1 {
        fill: #7ec679;
      }

      .cls-2 {
        fill: #e95959;
      }
    </style>
  </defs>
  <path class="cls-1" d="m0,32.01V2.58c1.05-.16,2.17-.32,3.33-.47.44-.06.88-.12,1.35-.18,1.07-.13,2.2-.26,3.36-.37.44-.05.9-.09,1.37-.13,1.08-.1,2.22-.2,3.37-.27.46-.04.93-.07,1.42-.09,1.09-.07,2.22-.13,3.37-.17.42-.02.84-.03,1.28-.04,1.1-.04,2.23-.06,3.38-.06.38,0,.77-.01,1.15-.01,1.1,0,2.23.02,3.38.04.09.01.19.01.28.01.34,0,.67.02,1,.03,1.14.03,2.27.08,3.38.15.4.01.8.04,1.2.07,1.14.06,2.28.15,3.39.24.43.04.85.08,1.29.12,1.13.11,2.25.23,3.36.36.46.05.91.11,1.38.17,1.12.14,2.26.3,3.37.47.47.07.94.14,1.41.22,1.11.17,2.23.36,3.33.56.46.08.92.17,1.38.26,1.11.2,2.22.42,3.32.65.47.1.94.2,1.41.3,1.08.23,2.17.48,3.25.73.3.07.6.14.9.21.19.05.39.09.58.14,1.13.27,2.23.54,3.28.81h.01c.4.1.78.2,1.17.31,1.12.29,2.2.59,3.24.88.42.13.84.25,1.25.37,1.13.33,2.21.66,3.24.99.33.1.65.21.97.31,1.11.36,2.18.73,3.19,1.09.39.14.77.28,1.15.42,1.1.4,2.16.81,3.15,1.21.45.18.88.36,1.31.54,1.1.46,2.14.91,3.12,1.36.47.22.93.44,1.39.65,1.09.53,2.12,1.04,3.09,1.54.37.19.73.38,1.08.56,1.07.57,2.09,1.12,3.05,1.64.38.21.76.41,1.13.61,1.03.56,2.04,1.09,3.04,1.58.43.21.86.42,1.3.62,1.04.48,2.1.93,3.2,1.32.44.16.88.31,1.35.45,1.03.33,2.13.61,3.29.86.38.08.76.15,1.16.22,1.04.19,2.15.34,3.34.45.44.05.9.09,1.38.12.27.02.55.04.83.06.84.05,1.7.08,2.55.08.44,0,.87,0,1.32-.02,1.11-.01,2.25-.06,3.39-.15.39-.03.79-.06,1.18-.09,1.1-.1,2.22-.23,3.34-.39.36-.04.73-.09,1.09-.15,1.09-.15,2.2-.33,3.31-.53.42-.07.83-.15,1.25-.23h.01c1.06-.2,2.13-.42,3.2-.65.35-.07.7-.14,1.05-.22,1.06-.23,2.14-.48,3.22-.74.44-.1.89-.21,1.35-.32,1.06-.25,2.14-.52,3.21-.8.41-.1.83-.2,1.24-.31h.01c1.04-.27,2.09-.54,3.14-.82.46-.12.93-.24,1.4-.36,1.05-.28,2.12-.56,3.17-.83.47-.13.95-.25,1.43-.37,1.06-.28,2.13-.56,3.19-.83.48-.12.96-.24,1.44-.36,1.05-.27,2.11-.53,3.15-.78.54-.13,1.08-.26,1.63-.38,1.06-.25,2.12-.49,3.18-.71.44-.1.87-.2,1.32-.28,1.09-.23,2.19-.45,3.27-.65.4-.08.8-.15,1.2-.21,1.11-.2,2.22-.38,3.32-.53.41-.07.82-.13,1.23-.18,1.1-.14,2.2-.27,3.28-.37.22-.02.43-.04.65-.06.18-.02.36-.03.55-.04,1.06-.09,2.18-.16,3.35-.19.39-.02.79-.03,1.2-.03,1.04-.03,2.13-.02,3.25,0,.38.01.77.02,1.17.05,1.08.03,2.2.1,3.35.2.34.02.69.05,1.04.09,1.08.1,2.21.23,3.35.39.31.04.62.09.94.14,1.09.16,2.21.35,3.34.57.27.05.53.1.8.16,1.08.21,2.18.45,3.3.73.25.05.5.12.75.18,1.08.27,2.19.57,3.31.9.39.11.78.22,1.17.34,1.06.33,2.15.67,3.25,1.06.2.06.4.13.6.2v15.01H0Z"/>
  <g>
    <path class="cls-2" d="m213.19,17.89c-.95-.36-.94-1.17-.59-1.9.73-1.51,1.81-.22,2.65-.09.93.15.66,1.07.36,1.74-.65,1.44-1.56.5-2.42.25Z"/>
    <path class="cls-2" d="m208.74,16.76c-.96-.32-.98-1.13-.66-1.87.67-1.54,1.8-.3,2.65-.2.93.11.7,1.04.42,1.73-.59,1.46-1.54.57-2.41.35Z"/>
    <path class="cls-2" d="m204.91,15.58c-.99-.18-1.11-.99-.87-1.76.49-1.62,1.75-.55,2.6-.57.94-.02.81.93.62,1.65-.42,1.53-1.46.77-2.35.68Z"/>
    <path class="cls-2" d="m200.73,14.72c-.98-.24-1.05-1.05-.78-1.82.57-1.59,1.77-.44,2.63-.41.94.04.76.98.53,1.69-.5,1.5-1.5.68-2.38.53Z"/>
    <path class="cls-2" d="m196.52,14.05c-.99-.19-1.1-1-.86-1.77.5-1.61,1.75-.54,2.61-.55.94-.02.81.94.61,1.66-.43,1.53-1.47.76-2.35.66Z"/>
    <path class="cls-2" d="m192.16,13.67c-1-.15-1.14-.95-.93-1.73.44-1.64,1.73-.61,2.59-.66.94-.06.84.9.67,1.63-.37,1.55-1.44.83-2.33.77Z"/>
    <path class="cls-2" d="m187.93,13.42c-1,.08-1.29-.68-1.23-1.49.13-1.7,1.58-.98,2.41-1.22.91-.26.99.7.96,1.45-.08,1.6-1.25,1.13-2.14,1.26Z"/>
    <path class="cls-2" d="m183.56,13.89c-.99.19-1.35-.52-1.37-1.34-.04-1.7,1.47-1.16,2.27-1.49.88-.37,1.05.58,1.09,1.33.08,1.6-1.14,1.27-2,1.51Z"/>
    <path class="cls-2" d="m179.03,14.09c-.99.19-1.35-.52-1.37-1.34-.04-1.7,1.47-1.16,2.27-1.49.88-.37,1.05.58,1.09,1.33.08,1.6-1.14,1.27-2,1.51Z"/>
    <path class="cls-2" d="m174.51,14.87c-.99.19-1.35-.52-1.37-1.34-.04-1.7,1.47-1.16,2.27-1.49.88-.37,1.05.58,1.09,1.33.08,1.6-1.14,1.27-2,1.51Z"/>
    <path class="cls-2" d="m170.11,15.59c-.97.28-1.38-.4-1.46-1.21-.17-1.69,1.38-1.29,2.15-1.69.85-.45,1.1.48,1.19,1.23.2,1.58-1.04,1.37-1.88,1.68Z"/>
    <path class="cls-2" d="m165.49,16.35c-.98.24-1.37-.46-1.42-1.28-.11-1.7,1.43-1.22,2.22-1.6.86-.41,1.08.53,1.14,1.28.14,1.59-1.09,1.32-1.94,1.59Z"/>
    <path class="cls-2" d="m160.81,17.48c-.96.33-1.4-.33-1.51-1.14-.24-1.68,1.33-1.36,2.08-1.8.83-.49,1.11.42,1.24,1.17.27,1.57-.98,1.42-1.81,1.77Z"/>
    <path class="cls-2" d="m156.23,18.75c-.96.32-1.4-.34-1.51-1.15-.23-1.69,1.34-1.34,2.09-1.78.83-.48,1.11.44,1.23,1.18.26,1.57-.99,1.41-1.82,1.76Z"/>
    <path class="cls-2" d="m151.62,19.88c-.96.33-1.4-.33-1.51-1.14-.24-1.68,1.33-1.35,2.08-1.79.83-.48,1.11.43,1.24,1.17.27,1.57-.98,1.41-1.81,1.77Z"/>
    <path class="cls-2" d="m147.09,21.03c-.96.33-1.4-.33-1.52-1.13-.25-1.68,1.32-1.36,2.07-1.81.83-.49,1.12.42,1.24,1.16.27,1.57-.97,1.42-1.8,1.78Z"/>
    <path class="cls-2" d="m142.61,22.24c-.98.25-1.37-.44-1.43-1.26-.13-1.7,1.42-1.24,2.2-1.63.86-.42,1.08.51,1.16,1.26.16,1.59-1.07,1.33-1.92,1.62Z"/>
    <path class="cls-2" d="m138.01,23.31c-.99.19-1.35-.52-1.37-1.34-.04-1.7,1.47-1.16,2.27-1.49.88-.37,1.05.58,1.09,1.33.08,1.6-1.14,1.27-2,1.51Z"/>
    <path class="cls-2" d="m133.75,24.19c-.99.19-1.35-.52-1.37-1.34-.04-1.7,1.47-1.16,2.27-1.49.88-.37,1.05.58,1.09,1.33.08,1.6-1.14,1.27-2,1.51Z"/>
    <path class="cls-2" d="m129.29,25.21c-.99.19-1.35-.52-1.37-1.34-.04-1.7,1.47-1.16,2.27-1.49.88-.37,1.05.58,1.09,1.33.08,1.6-1.14,1.27-2,1.51Z"/>
    <path class="cls-2" d="m124.9,25.91c-.99.19-1.35-.52-1.37-1.34-.04-1.7,1.47-1.16,2.27-1.49.88-.37,1.05.58,1.09,1.33.08,1.6-1.14,1.27-2,1.51Z"/>
    <path class="cls-2" d="m120.15,26.24c-1.01-.01-1.23-.79-1.11-1.6.25-1.68,1.65-.84,2.49-1,.93-.18.94.78.84,1.53-.19,1.58-1.33,1.01-2.22,1.07Z"/>
    <path class="cls-2" d="m115.43,26.21c-1-.06-1.2-.85-1.04-1.65.32-1.67,1.68-.75,2.53-.88.93-.14.9.83.78,1.57-.26,1.57-1.37.95-2.27.96Z"/>
    <path class="cls-2" d="m110.71,25.73c-1-.08-1.19-.87-1.02-1.66.34-1.66,1.69-.73,2.54-.84.93-.12.89.84.76,1.58-.28,1.57-1.39.93-2.28.93Z"/>
    <path class="cls-2" d="m106.18,25.01c-1-.11-1.16-.91-.97-1.7.4-1.65,1.71-.67,2.57-.74.94-.09.87.87.71,1.61-.33,1.56-1.41.87-2.31.84Z"/>
    <path class="cls-2" d="m101.21,23.18c-.89-.51-.76-1.32-.31-1.97.93-1.37,1.82.08,2.64.36.9.3.5,1.16.11,1.78-.84,1.31-1.61.23-2.43-.16Z"/>
    <path class="cls-2" d="m96.9,20.86c-.87-.55-.72-1.34-.26-1.98.97-1.33,1.81.15,2.62.45.89.33.47,1.18.05,1.78-.88,1.28-1.62.17-2.42-.25Z"/>
    <path class="cls-2" d="m92.68,18.71c-.87-.56-.71-1.35-.23-1.99.99-1.32,1.81.17,2.62.49.88.35.45,1.19.03,1.78-.9,1.27-1.62.15-2.42-.29Z"/>
    <path class="cls-2" d="m88.59,16.6c-.89-.51-.77-1.31-.33-1.97.92-1.37,1.82.07,2.64.34.9.3.51,1.16.12,1.78-.83,1.32-1.61.24-2.43-.14Z"/>
    <path class="cls-2" d="m84.2,14.47c-.92-.44-.85-1.25-.45-1.94.83-1.44,1.82-.07,2.65.14.92.23.58,1.12.23,1.77-.75,1.38-1.59.37-2.43.04Z"/>
    <path class="cls-2" d="m79.86,12.65c-.95-.36-.94-1.18-.58-1.9.73-1.5,1.81-.22,2.65-.08.93.15.66,1.07.35,1.74-.65,1.43-1.56.49-2.42.24Z"/>
    <path class="cls-2" d="m75.54,11.07c-.95-.37-.93-1.18-.58-1.9.74-1.5,1.81-.21,2.66-.07.93.15.65,1.07.35,1.74-.65,1.43-1.56.49-2.42.23Z"/>
    <path class="cls-2" d="m71.28,9.74c-.93-.42-.87-1.23-.49-1.93.81-1.46,1.82-.11,2.65.08.92.21.6,1.11.26,1.76-.72,1.39-1.58.4-2.43.09Z"/>
    <path class="cls-2" d="m66.83,8.39c-.94-.4-.9-1.21-.53-1.92.78-1.48,1.81-.16,2.66.01.92.18.63,1.09.3,1.75-.69,1.41-1.58.44-2.43.15Z"/>
    <path class="cls-2" d="m62.56,7.55c-.99-.2-1.09-1.01-.84-1.78.51-1.61,1.76-.52,2.61-.52.94,0,.8.95.59,1.66-.44,1.52-1.47.75-2.36.64Z"/>
    <path class="cls-2" d="m57.84,6.24c-.99-.21-1.08-1.02-.83-1.79.53-1.6,1.76-.5,2.62-.49.94,0,.79.95.58,1.67-.46,1.52-1.48.73-2.37.61Z"/>
    <path class="cls-2" d="m53.25,5.61c-1-.08-1.19-.87-1.02-1.67.35-1.66,1.69-.73,2.54-.83.93-.12.89.84.76,1.58-.28,1.57-1.39.92-2.28.92Z"/>
    <path class="cls-2" d="m48.53,4.84c-1-.09-1.18-.88-1.01-1.67.35-1.66,1.7-.72,2.55-.82.93-.11.89.85.75,1.59-.29,1.57-1.39.91-2.28.91Z"/>
    <path class="cls-2" d="m43.74,4.08c-1-.13-1.15-.93-.95-1.72.42-1.64,1.72-.64,2.58-.7.94-.07.85.89.69,1.62-.35,1.55-1.43.85-2.32.8Z"/>
    <path class="cls-2" d="m39.09,3.44c-1-.08-1.19-.87-1.03-1.66.34-1.66,1.69-.73,2.54-.84.93-.12.89.84.76,1.58-.28,1.57-1.39.93-2.28.93Z"/>
    <path class="cls-2" d="m34.44,3.12c-1-.07-1.19-.86-1.03-1.66.34-1.66,1.69-.74,2.54-.85.93-.13.9.84.77,1.58-.27,1.57-1.38.93-2.27.93Z"/>
    <path class="cls-2" d="m30.01,2.85c-1,.06-1.28-.7-1.21-1.51.15-1.7,1.59-.96,2.42-1.19.91-.25.98.71.94,1.46-.09,1.6-1.27,1.11-2.15,1.23Z"/>
    <path class="cls-2" d="m25.43,2.82c-1,.12-1.31-.62-1.28-1.43.06-1.7,1.54-1.05,2.36-1.33.9-.3,1.02.65,1.01,1.4-.01,1.6-1.21,1.18-2.09,1.36Z"/>
    <path class="cls-2" d="m20.99,2.92c-.99.19-1.35-.52-1.37-1.34-.04-1.7,1.47-1.16,2.27-1.49.88-.37,1.05.58,1.09,1.33.08,1.6-1.14,1.27-2,1.51Z"/>
    <path class="cls-2" d="m16.35,2.92c-.99.19-1.35-.52-1.37-1.34-.04-1.7,1.47-1.16,2.27-1.49.88-.37,1.05.58,1.09,1.33.08,1.6-1.14,1.27-2,1.51Z"/>
    <path class="cls-2" d="m11.59,3.29c-.99.19-1.35-.52-1.37-1.34-.04-1.7,1.47-1.16,2.27-1.49.88-.37,1.05.58,1.09,1.33.08,1.6-1.14,1.27-2,1.51Z"/>
    <path class="cls-2" d="m6.88,3.95c-.99.19-1.35-.52-1.37-1.34-.04-1.7,1.47-1.16,2.27-1.49.88-.37,1.05.58,1.09,1.33.08,1.6-1.14,1.27-2,1.51Z"/>
    <path class="cls-2" d="m2.18,4.4c-.99.19-1.35-.52-1.37-1.34-.04-1.7,1.47-1.16,2.27-1.49.88-.37,1.05.58,1.09,1.33.08,1.6-1.14,1.27-2,1.51Z"/>
  </g>
</svg>