<?xml version="1.0" encoding="UTF-8"?>
<svg id="Layer_1" data-name="Layer 1" xmlns="http://www.w3.org/2000/svg" viewBox="0 0 17.76 26.13">
  <defs>
    <style>
      .cls-1 {
        fill: #333;
      }
    </style>
  </defs>
  <path class="cls-1" d="m17.76,8.46c-.07,1.95-.78,3.64-1.53,5.33-1.77,3.97-4.02,7.67-6.32,11.34-.55.87-1.06,1.63-1.92.23C5.14,20.72,2.16,16.17.45,10.95c-1.14-3.48-.03-6.4,2.61-8.69C5.89-.21,9.2-.65,12.61.91c3.22,1.46,4.87,4.1,5.15,7.55Zm-3.32.53c.01-2.88-2.53-5.51-5.43-5.59-3-.09-5.73,2.55-5.73,5.56s2.65,5.93,5.42,6.03c2.85.1,5.73-2.91,5.74-6Z"/>
</svg>