<?xml version="1.0" encoding="UTF-8"?>
<svg id="Layer_1" data-name="Layer 1" xmlns="http://www.w3.org/2000/svg" viewBox="0 0 135.48 72.06">
  <defs>
    <style>
      .cls-1 {
        fill: #195345;
      }

      .cls-2 {
        fill: #7bb888;
      }
    </style>
  </defs>
  <path class="cls-2" d="m63.11,12.42c1.54,0,3.08,0,4.62,0,5.21-.01,10.4.4,15.59.86,8.9.8,17.7,2.21,26.33,4.54,3.19.86,6.29,1.99,9.37,3.19.99.38,1.44.96,1.28,2.02-.06.37-.02.75,0,1.13.02.61-.22.8-.82.65-2.03-.49-3.7.35-5.14,1.63-3.67,3.26-5.27,7.57-5.99,12.28-.36,2.37-.29,2.4-2.65,2.38-.94,0-1.98.29-2.78-.14-1-.54-.39-1.71-.53-2.59-.56-3.41-1.16-6.8-2.88-9.88-1.17-2.09-2.51-4.04-4.73-5.13-3.21-1.58-6.54-.57-8.93,2.52-2.89,3.72-4.04,8.03-4.6,12.61-.37,2.98.38,2.59-2.71,2.62-1.28.01-2.56-.03-3.83.01-.81.02-1.08-.28-1.17-1.1-.54-4.9-1.39-9.72-3.6-14.2-.76-1.55-1.64-3.03-2.92-4.24-2.69-2.54-5.63-2.58-8.26.02-2.31,2.27-3.53,5.18-4.52,8.19-1.12,3.4-1.69,6.91-2.03,10.46-.06.62-.34.86-.93.86-2.33,0-4.66-.01-6.99,0-.77,0-.9-.41-.95-1.07-.29-4.12-1.14-8.08-3.22-11.71-.88-1.55-1.98-2.95-3.39-4.02-3.26-2.45-7.15-1.51-9.68,1.55-3.13,3.77-4.44,8.26-4.84,13.07-.02.19-.02.38-.05.56q-.26,1.62-1.89,1.62c-2.96,0-2.99.02-3.67-2.83-.89-3.76-2.33-7.22-5.25-9.87-1.72-1.56-3.66-2.52-6.06-1.61-.68.26-1.01.07-.95-.68,0-.04,0-.08,0-.11-.13-3.52-.11-3.49,3.23-4.84,7.94-3.22,16.2-5.18,24.64-6.48,5.44-.84,10.91-1.43,16.4-1.85,4.84-.37,9.67-.38,14.51-.4Z"/>
  <path class="cls-1" d="m108.17,50.04c.12-1.13.65-1.89,1.78-2,1.36-.13,2.69-.18,3.64,1.14,2.87,3.98,5.77,7.92,8.65,11.88.09.12.15.26.43.27,0-2.72,0-5.45,0-8.17,0-.7-.42-.78-.97-.77-1.39,0-2.78.02-4.17,0-.84-.01-1.71-.11-2.08-1.02-.39-.97-.4-1.99.07-2.94.25-.51.8-.66,1.35-.66,5.64,0,11.27,0,16.91,0,1.03,0,1.57.56,1.65,1.6.18,2.4-.39,3.02-2.81,3.03-1.09,0-2.18.05-3.27-.01-.91-.05-1.15.33-1.15,1.19.03,5.07,0,10.14.03,15.21,0,1.13-.1,2.12-1.34,2.53-1.63.55-3.17.2-3.98-.91-2.95-4.01-5.89-8.02-8.84-12.03-.09-.12-.15-.26-.24-.4-.41.38-.27.74-.27,1.05-.01,3.15,0,6.31-.01,9.46,0,2.64-2.22,3.92-4.54,2.63-.1-.05-.25-.1-.28-.18-.49-1.3-1.15-.66-1.9-.24-5.21,2.9-12.3.99-15.16-4.22-.91-1.65-1.87-2.42-3.8-2.17-1.59.2-1.61.04-1.61,1.63,0,.9.02,1.8,0,2.7-.03.93-.22,1.84-1.14,2.29-1.1.53-2.26.57-3.33-.08-.58-.35-.84-.92-.84-1.62,0-6.5,0-12.99,0-19.49,0-1.08.64-1.86,1.59-1.87,3.4-.05,6.82-.47,10.2.27.75.16,1.45.47,2.03.92.55.42.96.36,1.53.09,3.69-1.76,7.31-1.54,10.87.41.29.16.59.3.97.49Zm-.59,9.85c.15-2.36-1.07-4.22-2.99-5.56-1.64-1.15-3.52-1.41-5.43-.48-.4.19-.64.39-.57.94.37,2.76-.35,5.18-2.38,7.16-.31.3-.5.59-.28,1.08.95,2.13,3.99,4.22,6.61,3.53,3.17-.83,5.04-3.19,5.04-6.66Zm-21.3-3.9c0,.15,0,.3,0,.45.07,2.98-.56,2.55,2.73,2.6.63,0,.96-.16.99-.87.05-1.01.41-1.97.78-2.9.88-2.19.89-2.19-1.53-2.19q-2.97,0-2.97,2.92Z"/>
  <path class="cls-1" d="m16.16,54.84c0,1.58-.15,3.17.04,4.73.22,1.78.38,3.61,1.6,5.14,1.68,2.1,5.23,1.95,6.88-.37,1.16-1.63,1.2-3.53,1.25-5.38.1-3.08.02-6.16.03-9.24,0-1.52.63-2.16,2.19-2.17,2.56-.01,5.11-.01,7.67,0,4.09.02,7.69,3.5,7.85,7.6.1,2.62-.57,4.98-2.52,6.84-.47.45-.54.8-.13,1.34.77,1.01,1.48,2.07,2.22,3.1,1.39,1.92.34,4.33-2.04,4.66-.93.13-1.6-.37-2.1-1.06-1.12-1.54-2.24-3.1-3.25-4.71-.57-.9-1.22-1.26-2.29-1.22-2.6.1-2.25-.29-2.28,2.3,0,.68.03,1.35-.02,2.03-.14,1.95-1.29,3.19-3.05,2.57-1.99-.7-3.59.05-5.35.38-2.62.5-5.09.1-7.3-1.4-.76-.52-1.3-.51-2.08-.05-3.22,1.91-6.55,1.89-9.89.33-1.47-.69-2.51-1.89-3.32-3.26-.61-1.03-.15-2.3,1.04-3.22.86-.67,2.18-.66,3.02.06.48.42.91.9,1.37,1.34,1.07,1.02,2.35,1.26,3.75.98,1.11-.22,1.92-.89,1.98-2,.06-1.11-.79-1.72-1.78-2.05-1.38-.47-2.78-.89-4.15-1.39-1.06-.38-2.01-.95-2.95-1.59-2.7-1.86-2.61-6.76-1-8.89,1.93-2.55,4.61-3.32,7.65-3.05,1.67.15,3.28.7,5,.62,1.25-.06,1.92.69,1.94,1.97.03,1.69,0,3.38,0,5.07h0Zm15.11.96c0,.67.03,1.35,0,2.02-.04.71.24,1.02.97,1,1.08-.04,2.17,0,3.26-.01,1.52-.03,2.59-.99,2.83-2.51.2-1.22-.73-2.77-1.9-3.23-.73-.29-1.47-.2-2.22-.21q-2.94-.01-2.94,2.94Zm-20.42-.97c-.14-.6.31-1.46-.58-2.01-1.18-.74-2.38-.86-3.61-.18-1.04.58-1.16,1.81-.28,2.62.75.69,1.74.83,2.67,1.09,2.2.61,1.73.39,1.8-1.53Z"/>
  <path class="cls-1" d="m50.08,58.6c0-3.08,0-6.16,0-9.24,0-1.67.7-2.26,2.62-2.26,2.03,0,2.68.54,2.68,2.29,0,5.07.01,10.14,0,15.21,0,.8.13,1.25,1.1,1.24.9-.02,1.05-.41,1.05-1.18-.02-4.36-.01-8.71,0-13.07,0-.68,0-1.35,0-2.03.02-1.55.61-2.21,2.18-2.22,4.55-.03,9.09-.03,13.64,0,1.58.01,2.14.81,2.13,2.77-.01,1.66-.7,2.5-2.19,2.51-3.08.03-6.16.04-9.24,0-.94-.01-1.24.31-1.22,1.23.09,3.21-.43,2.66,2.65,2.71,1.43.02,2.86-.01,4.28.02.82.02,1.71.23,1.96,1.05.29.94.43,2.04-.13,2.94-.6.96-1.75.76-2.67.82-1.68.11-3.38.05-5.07.03-.71-.01-1.03.22-1.01.97.09,3.92-.59,3.12,3.06,3.18,2.44.05,4.88,0,7.33.01,1.45,0,2.08.51,2.22,1.83.19,1.8-.26,3.16-1.64,3.33-.48.06-.96.15-1.44.15-3.91,0-7.83.19-11.72-.06-2.88-.18-5.78.13-8.63-.37-1.49-.26-1.91-.78-1.91-2.39-.02-3.15,0-6.31,0-9.46Z"/>
  <path class="cls-2" d="m77.62.02c3.42,0,5.7,2.18,5.7,5.44,0,3.32-2.28,5.6-5.51,5.68-3.23.08-5.75-2.24-5.75-5.6,0-3.53,2.95-5.8,5.56-5.52Z"/>
  <path class="cls-2" d="m47.84.48c3.18.03,5.61,2.47,5.62,5.65.01,3.08-2.68,5.72-5.78,5.67-3.12-.05-5.48-2.57-5.46-5.81.02-3.08,2.53-5.54,5.61-5.51Z"/>
  <path class="cls-2" d="m102.66,11.43c0-2.75,1.9-4.53,4.65-4.68,2.51-.13,4.8,2.05,4.83,4.73.03,2.56-2.23,4.82-4.71,4.81-2.62-.01-5.09-2.24-4.78-4.86Z"/>
  <path class="cls-2" d="m12.68,11.4c-.3-2.33,2.17-4.73,4.68-4.68,2.06.05,4.69,1.63,4.78,4.68.08,2.6-2.19,4.95-4.72,4.88-2.83-.08-5.02-2.29-4.74-4.88Z"/>
</svg>