<?xml version="1.0" encoding="UTF-8"?>
<svg id="Layer_1" data-name="Layer 1" xmlns="http://www.w3.org/2000/svg" viewBox="0 0 169.19 124.8">
  <defs>
    <style>
      .cls-1 {
        fill: #80c679;
      }
    </style>
  </defs>
  <path class="cls-1" d="m102.26,31.82c1.34,5.93,3.59,11.22,7.86,15.42,6.61,6.51,13.63,8.01,20.44.57,10.86-11.87,22.68-23.14,27.36-39.34.45-1.57,1.1-3.12,1.92-4.53,1.52-2.62,3.47-4.98,6.93-3.47,4.27,1.86,1.79,5.11.72,7.29-6.55,13.28-9.4,27.27-9.27,42.03.07,7.94.86,15.32,5,22.62,5.7,10.07,2.64,16.56-8.09,18.74-32.3,6.55-61.56,21.84-92.59,32.04-9.71,3.19-15.18,2.12-19.6-7.65-8.33-18.45-22.2-32.86-37.5-45.61-5.18-4.32-7.15-7.93-3.79-13.35,3.92-6.32,8.15-1.29,11.49.87,12.11,7.83,25.85,10.93,39.48,14.32,18.01,4.48,31.81-4.23,35.78-22.56,1.13-5.22,1.12-10.67,1.97-15.96.69-4.27-.08-10.2,5.84-10.96,7.69-.99,4.39,6.2,6.04,9.55Zm-65.21,51.36c4.62,7.2,8.84,11.97,11,17.54,3.4,8.79,8.09,8.83,16.33,6.47,25.47-7.3,48.93-20.15,74.77-26.38,3.62-.87,10.63-1.72,10.04-7.32-.94-9.01,1.64-18.5-2.43-27.8-8.87,6.74-13.15,17.54-23.95,20.33-11.63,3.01-18.63-6.32-27.72-11.89-3.22,12.89-8.74,22.92-19.94,29.61-12.32,7.36-24.06.39-38.11-.57Z"/>
</svg>