<?xml version="1.0" encoding="UTF-8"?>
<svg id="Layer_1" data-name="Layer 1" xmlns="http://www.w3.org/2000/svg" viewBox="0 0 471.83 16.96">
  <defs>
    <style>
      .cls-1 {
        fill: #e6c858;
      }
    </style>
  </defs>
  <g>
    <path class="cls-1" d="m91.91,6.93c1.9-9.04,2.78-7.61,9.65-3.84,3.83,2.1,8.11,3.59,12.12,5.46,1.45.67,2.22.65,2.41-.91.04-.35.05-.73.23-1.03.97-1.54,1.2-4.48,3.68-3.88,2.67.64.04,2.77-.19,4.1-1.37,7.73-2.28,7.97-10.23,4.07-3.84-1.89-7.89-3.46-11.8-5.26-1.61-.74-2.48-.64-2.66,1.08-.05.46-.25.91-.42,1.35-1.47,3.88-2.38,4.08-5.95,1.45-2.25-1.65-4.35-3.47-7-4.68-1.72-.79-2.7-.71-2.8,1.32-.09,1.85-.44,3.71-.89,5.53-.64,2.58-2.13,3.51-5.13,1.99-4.15-2.1-7.24-5.18-10.43-8.14-1.36-1.26-5.46-2.31-2.57-4.75,2.84-2.4,3.8,1.29,5.43,2.35,2.89,1.87,4.93,4.6,7.99,6.36,1.9,1.09,2.66.66,2.64-1.22,0-.12,0-.23,0-.35.07-2.67-.46-5.84,2.8-7.19,3.49-1.44,5.9,1.34,8.48,2.88,1.52.91,2.88,2.04,4.65,3.31Z"/>
    <path class="cls-1" d="m149.66,6.93c1.9-9.04,2.78-7.61,9.65-3.84,3.83,2.1,8.11,3.59,12.12,5.46,1.45.67,2.22.65,2.41-.91.04-.35.05-.73.23-1.03.97-1.54,1.2-4.48,3.68-3.88,2.67.64.04,2.77-.19,4.1-1.37,7.73-2.28,7.97-10.23,4.07-3.84-1.89-7.89-3.46-11.8-5.26-1.61-.74-2.48-.64-2.66,1.08-.05.46-.25.91-.42,1.35-1.47,3.88-2.38,4.08-5.95,1.45-2.25-1.65-4.35-3.47-7-4.68-1.72-.79-2.7-.71-2.8,1.32-.09,1.85-.44,3.71-.89,5.53-.64,2.58-2.13,3.51-5.13,1.99-4.15-2.1-7.24-5.18-10.43-8.14-1.36-1.26-5.46-2.31-2.57-4.75,2.84-2.4,3.8,1.29,5.43,2.35,2.89,1.87,4.93,4.6,7.99,6.36,1.9,1.09,2.66.66,2.64-1.22,0-.12,0-.23,0-.35.07-2.67-.46-5.84,2.8-7.19,3.49-1.44,5.9,1.34,8.48,2.88,1.52.91,2.88,2.04,4.65,3.31Z"/>
    <path class="cls-1" d="m208.5,7.46c1.9-9.04,2.78-7.61,9.65-3.84,3.83,2.1,8.11,3.59,12.12,5.46,1.45.67,2.22.65,2.41-.91.04-.35.05-.73.23-1.03.97-1.54,1.2-4.48,3.68-3.88,2.67.64.04,2.77-.19,4.1-1.37,7.73-2.28,7.97-10.23,4.07-3.84-1.89-7.89-3.46-11.8-5.26-1.61-.74-2.48-.64-2.66,1.08-.05.46-.25.91-.42,1.35-1.47,3.88-2.38,4.08-5.95,1.45-2.25-1.65-4.35-3.47-7-4.68-1.72-.79-2.7-.71-2.8,1.32-.09,1.85-.44,3.71-.89,5.53-.64,2.58-2.13,3.51-5.13,1.99-4.15-2.1-7.24-5.18-10.43-8.14-1.36-1.26-5.46-2.31-2.57-4.75,2.84-2.4,3.8,1.29,5.43,2.35,2.89,1.87,4.93,4.6,7.99,6.36,1.9,1.09,2.66.66,2.64-1.22,0-.12,0-.23,0-.35.07-2.67-.46-5.84,2.8-7.19,3.49-1.44,5.9,1.34,8.48,2.88,1.52.91,2.88,2.04,4.65,3.31Z"/>
  </g>
  <g>
    <path class="cls-1" d="m267.8,8.95c1.9-9.04,2.78-7.61,9.65-3.84,3.83,2.1,8.11,3.59,12.12,5.46,1.45.67,2.22.65,2.41-.91.04-.35.05-.73.23-1.03.97-1.54,1.2-4.48,3.68-3.88,2.67.64.04,2.77-.19,4.1-1.37,7.73-2.28,7.97-10.23,4.07-3.84-1.89-7.89-3.46-11.8-5.26-1.61-.74-2.48-.64-2.66,1.08-.05.46-.25.91-.42,1.35-1.47,3.88-2.38,4.08-5.95,1.45-2.25-1.65-4.35-3.47-7-4.68-1.72-.79-2.7-.71-2.8,1.32-.09,1.85-.44,3.71-.89,5.53-.64,2.58-2.13,3.51-5.13,1.99-4.15-2.1-7.24-5.18-10.43-8.14-1.36-1.26-5.46-2.31-2.57-4.75,2.84-2.4,3.8,1.29,5.43,2.35,2.89,1.87,4.93,4.6,7.99,6.36,1.9,1.09,2.66.66,2.64-1.22,0-.12,0-.23,0-.35.07-2.67-.46-5.84,2.8-7.19,3.49-1.44,5.9,1.34,8.48,2.88,1.52.91,2.88,2.04,4.65,3.31Z"/>
    <path class="cls-1" d="m325.55,8.95c1.9-9.04,2.78-7.61,9.65-3.84,3.83,2.1,8.11,3.59,12.12,5.46,1.45.67,2.22.65,2.41-.91.04-.35.05-.73.23-1.03.97-1.54,1.2-4.48,3.68-3.88,2.67.64.04,2.77-.19,4.1-1.37,7.73-2.28,7.97-10.23,4.07-3.84-1.89-7.89-3.46-11.8-5.26-1.61-.74-2.48-.64-2.66,1.08-.05.46-.25.91-.42,1.35-1.47,3.88-2.38,4.08-5.95,1.45-2.25-1.65-4.35-3.47-7-4.68-1.72-.79-2.7-.71-2.8,1.32-.09,1.85-.44,3.71-.89,5.53-.64,2.58-2.13,3.51-5.13,1.99-4.15-2.1-7.24-5.18-10.43-8.14-1.36-1.26-5.46-2.31-2.57-4.75,2.84-2.4,3.8,1.29,5.43,2.35,2.89,1.87,4.93,4.6,7.99,6.36,1.9,1.09,2.66.66,2.64-1.22,0-.12,0-.23,0-.35.07-2.67-.46-5.84,2.8-7.19,3.49-1.44,5.9,1.34,8.48,2.88,1.52.91,2.88,2.04,4.65,3.31Z"/>
    <path class="cls-1" d="m384.4,9.48c1.9-9.04,2.78-7.61,9.65-3.84,3.83,2.1,8.11,3.59,12.12,5.46,1.45.67,2.22.65,2.41-.91.04-.35.05-.73.23-1.03.97-1.54,1.2-4.48,3.68-3.88,2.67.64.04,2.77-.19,4.1-1.37,7.73-2.28,7.97-10.23,4.07-3.84-1.89-7.89-3.46-11.8-5.26-1.61-.74-2.48-.64-2.66,1.08-.05.46-.25.91-.42,1.35-1.47,3.88-2.38,4.08-5.95,1.45-2.25-1.65-4.35-3.47-7-4.68-1.72-.79-2.7-.71-2.8,1.32-.09,1.85-.44,3.71-.89,5.53-.64,2.58-2.13,3.51-5.13,1.99-4.15-2.1-7.24-5.18-10.43-8.14-1.36-1.26-5.46-2.31-2.57-4.75,2.84-2.4,3.8,1.29,5.43,2.35,2.89,1.87,4.93,4.6,7.99,6.36,1.9,1.09,2.66.66,2.64-1.22,0-.12,0-.23,0-.35.07-2.67-.46-5.84,2.8-7.19,3.49-1.44,5.9,1.34,8.48,2.88,1.52.91,2.88,2.04,4.65,3.31Z"/>
  </g>
  <path class="cls-1" d="m442.55,8.67c1.9-9.04,2.78-7.61,9.65-3.84,3.83,2.1,8.11,3.59,12.12,5.46,1.45.67,2.22.65,2.41-.91.04-.35.05-.73.23-1.03.97-1.54,1.2-4.48,3.68-3.88,2.67.64.04,2.77-.19,4.1-1.37,7.73-2.28,7.97-10.23,4.07-3.84-1.89-7.89-3.46-11.8-5.26-1.61-.74-2.48-.64-2.66,1.08-.05.46-.25.91-.42,1.35-1.47,3.88-2.38,4.08-5.95,1.45-2.25-1.65-4.35-3.47-7-4.68-1.72-.79-2.7-.71-2.8,1.32-.09,1.85-.44,3.71-.89,5.53-.64,2.58-2.13,3.51-5.13,1.99-4.15-2.1-7.24-5.18-10.43-8.14-1.36-1.26-5.46-2.31-2.57-4.75,2.84-2.4,3.8,1.29,5.43,2.35,2.89,1.87,4.93,4.6,7.99,6.36,1.9,1.09,2.66.66,2.64-1.22,0-.12,0-.23,0-.35.07-2.67-.46-5.84,2.8-7.19,3.49-1.44,5.9,1.34,8.48,2.88,1.52.91,2.88,2.04,4.65,3.31Z"/>
  <path class="cls-1" d="m32.99,6.93c1.9-9.04,2.78-7.61,9.65-3.84,3.83,2.1,8.11,3.59,12.12,5.46,1.45.67,2.22.65,2.41-.91.04-.35.05-.73.23-1.03.97-1.54,1.2-4.48,3.68-3.88,2.67.64.04,2.77-.19,4.1-1.37,7.73-2.28,7.97-10.23,4.07-3.84-1.89-7.89-3.46-11.8-5.26-1.61-.74-2.48-.64-2.66,1.08-.05.46-.25.91-.42,1.35-1.47,3.88-2.38,4.08-5.95,1.45-2.25-1.65-4.35-3.47-7-4.68-1.72-.79-2.7-.71-2.8,1.32-.09,1.85-.44,3.71-.89,5.53-.64,2.58-2.13,3.51-5.13,1.99-4.15-2.1-7.24-5.18-10.43-8.14C2.22,4.29-1.88,3.24,1.01.8c2.84-2.4,3.8,1.29,5.43,2.35,2.89,1.87,4.93,4.6,7.99,6.36,1.9,1.09,2.66.66,2.64-1.22,0-.12,0-.23,0-.35.07-2.67-.46-5.84,2.8-7.19,3.49-1.44,5.9,1.34,8.48,2.88,1.52.91,2.88,2.04,4.65,3.31Z"/>
</svg>