<?xml version="1.0" encoding="UTF-8"?>
<svg id="Layer_1" data-name="Layer 1" xmlns="http://www.w3.org/2000/svg" viewBox="0 0 26.27 26.23">
  <defs>
    <style>
      .cls-1 {
        fill: #333;
      }
    </style>
  </defs>
  <path class="cls-1" d="m12.83,26.18C1.37,26.25,0,24.89.01,13.45c0-1.98-.06-3.97.08-5.94C.43,3,2.96.38,7.47.15c3.75-.19,7.53-.19,11.29,0,4.51.23,7.13,2.85,7.37,7.35.19,3.75.19,7.53,0,11.28-.23,4.51-2.85,7.05-7.35,7.38-1.97.14-3.96.02-5.94.02Zm.28-2.37s0,.03,0,.04c1.58,0,3.17.05,4.75,0,4.09-.15,5.83-1.79,5.94-5.79.09-3.46.12-6.93-.04-10.39-.14-3.24-1.82-5-5-5.14-3.75-.17-7.53-.16-11.28,0-3.08.13-4.84,1.81-4.98,4.83-.18,3.85-.18,7.72,0,11.58.14,3.03,1.89,4.63,4.97,4.86,1.87.14,3.76.03,5.64.03Z"/>
  <path class="cls-1" d="m19.79,13.02c.07,3.86-2.8,6.79-6.64,6.79-3.73,0-6.58-2.78-6.65-6.49-.07-3.84,2.83-6.8,6.65-6.8,3.72,0,6.58,2.8,6.64,6.5Zm-6.53,4.43c2.47-.06,4.22-1.91,4.16-4.4-.06-2.46-1.92-4.22-4.4-4.16-2.45.06-4.22,1.93-4.16,4.4.06,2.46,1.92,4.22,4.4,4.16Z"/>
  <path class="cls-1" d="m21.51,6.13c-.06.93-.58,1.52-1.49,1.46-.86-.06-1.46-.64-1.4-1.58.05-.79.59-1.24,1.37-1.28.94-.04,1.47.43,1.52,1.4Z"/>
</svg>