<?xml version="1.0" encoding="UTF-8"?>
<svg id="Layer_1" data-name="Layer 1" xmlns="http://www.w3.org/2000/svg" viewBox="0 0 108.65 107.14">
  <defs>
    <style>
      .cls-1 {
        fill: #bd4e9d;
      }
    </style>
  </defs>
  <path class="cls-1" d="m57.98,55.03c-1.97,17.92-5.05,32.83-13.55,45.9-1.73,2.66-3.15,7.88-7.24,5.68-3.82-2.06.24-5.52,1.38-8.05,4.59-10.17,5.69-21.06,7.74-31.85,2.04-10.72-1.91-12.59-11.37-12.12-8.96.45-18.02-1.35-27.01-1.15C.89,53.6-.16,49.22.02,44.47c.23-6.42,5.19-3.92,8.86-3.71,10.18.56,20.37.88,30.54,1.49,6.93.41,9.08-2.69,7.94-9.27-1.2-6.96-2.05-13.98-2.81-21.01-.59-5.48.69-11.52,6.64-11.94,6.4-.45,3.92,5.94,4.65,9.87,6.48,34.69,5.04,32.72,36.63,23.84,1.87-.53,3.73-1.29,5.42-2.25,3.44-1.95,7.37-5.04,9.7.48,1.86,4.42,1.57,9.37-3.68,12.24-7.76,4.26-16.38,5.42-24.92,6.58-6.49.88-8.15,3.05-4.55,9.11,7.28,12.25,15.25,24.04,27.25,31.92,6.11,4.02,4,7.97,1.81,11.78-3.31,5.72-7.15,1.13-9.54-1.08-11.27-10.43-21.23-22.02-28.86-35.46-1.86-3.28-3.85-6.5-7.13-12.03Z"/>
</svg>