<?xml version="1.0" encoding="UTF-8"?>
<svg id="Layer_1" data-name="Layer 1" xmlns="http://www.w3.org/2000/svg" viewBox="0 0 1280 156.67">
  <defs>
    <style>
      .cls-1 {
        fill: #e8595a;
      }
    </style>
  </defs>
  <path class="cls-1" d="m16.11,50.21c5.66,2.14,5.59,6.99,3.51,11.3-4.34,8.97-10.75,1.33-15.8.53-5.54-.88-3.93-6.34-2.12-10.37,3.84-8.54,9.28-2.97,14.41-1.46Z"/>
  <path class="cls-1" d="m42.61,56.93c5.73,1.89,5.84,6.74,3.92,11.14-4.01,9.15-10.7,1.8-15.77,1.21-5.56-.64-4.16-6.17-2.49-10.27,3.53-8.7,9.17-3.37,14.34-2.08Z"/>
  <path class="cls-1" d="m65.39,63.97c5.91,1.08,6.58,5.88,5.19,10.5-2.91,9.63-10.4,3.26-15.5,3.39-5.59.14-4.84-5.54-3.67-9.84,2.48-9.12,8.7-4.61,13.98-4.05Z"/>
  <path class="cls-1" d="m90.25,69.07c5.84,1.45,6.26,6.28,4.63,10.81-3.41,9.43-10.56,2.61-15.65,2.42-5.59-.21-4.54-5.83-3.15-10.05,2.96-8.95,8.93-4.06,14.17-3.17Z"/>
  <path class="cls-1" d="m115.34,73.06c5.9,1.13,6.55,5.93,5.12,10.54-2.97,9.61-10.42,3.19-15.52,3.28-5.59.1-4.81-5.58-3.61-9.87,2.54-9.1,8.73-4.55,14.01-3.95Z"/>
  <path class="cls-1" d="m141.26,75.32c5.94.87,6.76,5.63,5.51,10.31-2.61,9.73-10.29,3.64-15.38,3.95-5.59.34-5.01-5.36-3.97-9.7,2.2-9.21,8.55-4.93,13.85-4.56Z"/>
  <path class="cls-1" d="m166.47,76.82c5.97-.45,7.66,4.03,7.3,8.89-.75,10.1-9.41,5.83-14.34,7.25-5.41,1.56-5.9-4.15-5.69-8.63.45-9.5,7.47-6.71,12.72-7.51Z"/>
  <path class="cls-1" d="m192.47,74.01c5.89-1.15,8.02,3.11,8.14,7.97.25,10.13-8.78,6.9-13.53,8.9-5.22,2.19-6.28-3.43-6.51-7.91-.49-9.5,6.76-7.54,11.9-8.96Z"/>
  <path class="cls-1" d="m219.43,72.81c5.89-1.15,8.02,3.11,8.14,7.97.25,10.13-8.78,6.9-13.53,8.9-5.22,2.19-6.28-3.43-6.51-7.91-.49-9.5,6.76-7.54,11.9-8.96Z"/>
  <path class="cls-1" d="m246.32,68.21c5.89-1.15,8.02,3.11,8.14,7.97.25,10.13-8.78,6.9-13.53,8.9-5.22,2.19-6.28-3.43-6.51-7.91-.49-9.5,6.76-7.54,11.9-8.96Z"/>
  <path class="cls-1" d="m272.51,63.9c5.79-1.68,8.23,2.37,8.72,7.22,1.02,10.08-8.22,7.67-12.81,10.08-5.04,2.65-6.52-2.86-7.09-7.29-1.21-9.42,6.16-8.13,11.18-10Z"/>
  <path class="cls-1" d="m299.99,59.35c5.85-1.42,8.13,2.74,8.44,7.6.64,10.11-8.51,7.29-13.18,9.49-5.13,2.42-6.4-3.15-6.8-7.61-.85-9.47,6.47-7.84,11.55-9.49Z"/>
  <path class="cls-1" d="m327.85,52.65c5.71-1.97,8.32,1.96,9.01,6.77,1.44,10.02-7.89,8.07-12.37,10.71-4.92,2.9-6.63-2.53-7.39-6.93-1.61-9.35,5.81-8.43,10.75-10.55Z"/>
  <path class="cls-1" d="m355.13,45.08c5.73-1.91,8.3,2.04,8.96,6.86,1.36,10.03-7.96,7.99-12.46,10.59-4.94,2.85-6.61-2.59-7.33-7-1.53-9.37,5.88-8.37,10.83-10.45Z"/>
  <path class="cls-1" d="m382.52,38.38c5.72-1.95,8.31,1.99,8.99,6.8,1.42,10.02-7.91,8.05-12.4,10.67-4.93,2.88-6.62-2.55-7.37-6.96-1.58-9.36,5.84-8.41,10.78-10.52Z"/>
  <path class="cls-1" d="m409.48,31.49c5.7-1.99,8.32,1.93,9.03,6.74,1.47,10.01-7.87,8.1-12.34,10.75-4.91,2.92-6.64-2.51-7.41-6.91-1.63-9.35,5.79-8.44,10.72-10.59Z"/>
  <path class="cls-1" d="m436.18,24.29c5.83-1.5,8.16,2.64,8.52,7.49.75,10.11-8.42,7.4-13.08,9.67-5.11,2.49-6.44-3.06-6.89-7.52-.96-9.46,6.38-7.93,11.44-9.64Z"/>
  <path class="cls-1" d="m463.56,17.93c5.89-1.15,8.02,3.11,8.14,7.97.25,10.13-8.78,6.9-13.53,8.9-5.22,2.19-6.28-3.43-6.51-7.91-.49-9.5,6.76-7.54,11.9-8.96Z"/>
  <path class="cls-1" d="m488.87,12.71c5.89-1.15,8.02,3.11,8.14,7.97.25,10.13-8.78,6.9-13.53,8.9-5.22,2.19-6.28-3.43-6.51-7.91-.49-9.5,6.76-7.54,11.9-8.96Z"/>
  <path class="cls-1" d="m515.42,6.62c5.89-1.15,8.02,3.11,8.14,7.97.25,10.13-8.78,6.9-13.53,8.9-5.22,2.19-6.28-3.43-6.51-7.91-.49-9.5,6.76-7.54,11.9-8.96Z"/>
  <path class="cls-1" d="m541.54,2.49c5.89-1.15,8.02,3.11,8.14,7.97.25,10.13-8.78,6.9-13.53,8.9-5.22,2.19-6.28-3.43-6.51-7.91-.49-9.5,6.76-7.54,11.9-8.96Z"/>
  <path class="cls-1" d="m569.84.5c5.99.08,7.34,4.7,6.62,9.5-1.5,10.01-9.81,4.98-14.83,5.96-5.51,1.08-5.57-4.66-5.03-9.1,1.16-9.43,7.94-6.02,13.24-6.36Z"/>
  <path class="cls-1" d="m597.9.67c5.98.37,7.14,5.05,6.22,9.82-1.92,9.92-10.01,4.49-15.06,5.23-5.55.81-5.37-4.93-4.64-9.34,1.55-9.36,8.18-5.63,13.49-5.7Z"/>
  <path class="cls-1" d="m625.97,3.52c5.97.45,7.08,5.15,6.1,9.9-2.03,9.89-10.06,4.35-15.12,5.01-5.55.73-5.31-5-4.53-9.4,1.66-9.34,8.25-5.51,13.56-5.51Z"/>
  <path class="cls-1" d="m652.94,7.81c5.96.68,6.91,5.42,5.78,10.13-2.35,9.81-10.19,3.96-15.27,4.43-5.57.51-5.15-5.2-4.23-9.57,1.96-9.27,8.42-5.19,13.72-4.99Z"/>
  <path class="cls-1" d="m682.54,18.74c5.29,3.06,4.54,7.84,1.87,11.75-5.55,8.14-10.82-.48-15.69-2.12-5.35-1.8-2.99-6.92-.63-10.6,5-7.8,9.59-1.38,14.44.97Z"/>
  <path class="cls-1" d="m708.21,32.53c5.19,3.25,4.3,8,1.52,11.81-5.79,7.93-10.79-.87-15.61-2.68-5.29-1.99-2.78-7.03-.31-10.62,5.24-7.62,9.63-1.04,14.41,1.48Z"/>
  <path class="cls-1" d="m733.32,45.34c5.15,3.33,4.2,8.06,1.37,11.83-5.89,7.85-10.78-1.03-15.58-2.91-5.26-2.06-2.69-7.07-.18-10.62,5.33-7.54,9.64-.89,14.39,1.7Z"/>
  <path class="cls-1" d="m757.65,57.89c5.31,3.02,4.59,7.81,1.95,11.74-5.5,8.18-10.82-.4-15.7-2-5.36-1.76-3.03-6.9-.7-10.59,4.95-7.84,9.58-1.45,14.45.86Z"/>
  <path class="cls-1" d="m783.75,70.58c5.49,2.61,5.07,7.44,2.69,11.56-4.97,8.57-10.82.41-15.79-.81-5.46-1.35-3.46-6.66-1.37-10.52,4.44-8.19,9.47-2.17,14.47-.23Z"/>
  <path class="cls-1" d="m809.59,81.37c5.65,2.16,5.57,7.01,3.48,11.31-4.36,8.96-10.76,1.3-15.8.48-5.53-.9-3.91-6.35-2.09-10.37,3.87-8.53,9.29-2.94,14.41-1.42Z"/>
  <path class="cls-1" d="m835.29,90.8c5.65,2.17,5.56,7.02,3.45,11.32-4.38,8.94-10.76,1.27-15.8.44-5.53-.91-3.9-6.37-2.06-10.38,3.89-8.52,9.3-2.91,14.41-1.37Z"/>
  <path class="cls-1" d="m860.62,98.72c5.53,2.5,5.21,7.33,2.89,11.5-4.82,8.68-10.81.64-15.8-.48-5.48-1.23-3.58-6.58-1.55-10.49,4.3-8.28,9.43-2.37,14.46-.54Z"/>
  <path class="cls-1" d="m887.11,106.76c5.59,2.35,5.37,7.2,3.15,11.42-4.62,8.8-10.79.92-15.81-.07-5.5-1.09-3.72-6.49-1.79-10.44,4.11-8.39,9.37-2.62,14.45-.91Z"/>
  <path class="cls-1" d="m912.57,111.74c5.89,1.2,6.49,6,5.02,10.6-3.06,9.57-10.45,3.07-15.55,3.1-5.59.03-4.75-5.63-3.52-9.91,2.63-9.07,8.77-4.45,14.05-3.79Z"/>
  <path class="cls-1" d="m940.65,119.54c5.88,1.26,6.44,6.07,4.93,10.65-3.14,9.54-10.48,2.96-15.57,2.93-5.59-.03-4.7-5.68-3.43-9.94,2.71-9.05,8.81-4.36,14.08-3.64Z"/>
  <path class="cls-1" d="m967.98,123.27c5.97.47,7.06,5.18,6.07,9.92-2.06,9.89-10.07,4.32-15.14,4.96-5.56.71-5.3-5.02-4.51-9.42,1.68-9.34,8.26-5.48,13.57-5.47Z"/>
  <path class="cls-1" d="m996.02,127.85c5.97.51,7.04,5.22,6.02,9.96-2.11,9.87-10.09,4.26-15.16,4.88-5.56.68-5.28-5.05-4.46-9.44,1.73-9.33,8.29-5.44,13.6-5.39Z"/>
  <path class="cls-1" d="m1024.54,132.37c5.95.78,6.83,5.54,5.63,10.23-2.49,9.77-10.25,3.79-15.34,4.17-5.58.42-5.07-5.29-4.09-9.64,2.09-9.24,8.49-5.05,13.8-4.76Z"/>
  <path class="cls-1" d="m1052.24,136.17c5.97.45,7.08,5.15,6.1,9.9-2.03,9.89-10.06,4.36-15.12,5.02-5.55.73-5.32-5-4.54-9.4,1.65-9.34,8.25-5.52,13.55-5.52Z"/>
  <path class="cls-1" d="m1079.89,138.09c5.98.43,7.09,5.13,6.13,9.88-2,9.9-10.05,4.39-15.11,5.07-5.55.75-5.33-4.98-4.56-9.39,1.63-9.35,8.23-5.54,13.54-5.56Z"/>
  <path class="cls-1" d="m1106.23,139.72c5.98-.37,7.62,4.14,7.2,8.98-.87,10.09-9.47,5.7-14.42,7.06-5.43,1.49-5.85-4.23-5.59-8.7.56-9.49,7.54-6.6,12.81-7.34Z"/>
  <path class="cls-1" d="m1133.53,139.87c5.95-.73,7.82,3.67,7.65,8.54-.35,10.13-9.17,6.26-14.04,7.91-5.34,1.81-6.06-3.87-6.02-8.35.08-9.51,7.19-7.05,12.41-8.1Z"/>
  <path class="cls-1" d="m1159.94,139.27c5.89-1.15,8.02,3.11,8.14,7.97.25,10.13-8.78,6.9-13.53,8.9-5.22,2.19-6.28-3.43-6.51-7.91-.49-9.5,6.76-7.54,11.9-8.96Z"/>
  <path class="cls-1" d="m1187.55,139.27c5.89-1.15,8.02,3.11,8.14,7.97.25,10.13-8.78,6.9-13.53,8.9-5.22,2.19-6.28-3.43-6.51-7.91-.49-9.5,6.76-7.54,11.9-8.96Z"/>
  <path class="cls-1" d="m1215.89,137.07c5.89-1.15,8.02,3.11,8.14,7.97.25,10.13-8.78,6.9-13.53,8.9-5.22,2.19-6.28-3.43-6.51-7.91-.49-9.5,6.76-7.54,11.9-8.96Z"/>
  <path class="cls-1" d="m1243.87,133.17c5.89-1.15,8.02,3.11,8.14,7.97.25,10.13-8.78,6.9-13.53,8.9-5.22,2.19-6.28-3.43-6.51-7.91-.49-9.5,6.76-7.54,11.9-8.96Z"/>
  <path class="cls-1" d="m1271.85,130.49c5.89-1.15,8.02,3.11,8.14,7.97.25,10.13-8.78,6.9-13.53,8.9-5.22,2.19-6.28-3.43-6.51-7.91-.49-9.5,6.76-7.54,11.9-8.96Z"/>
</svg>