<?xml version="1.0" encoding="UTF-8"?>
<svg id="Layer_1" data-name="Layer 1" xmlns="http://www.w3.org/2000/svg" viewBox="0 0 280.75 153.98">
  <defs>
    <style>
      .cls-1 {
        fill: #e8595a;
      }
    </style>
  </defs>
  <path class="cls-1" d="m166.8,68.41c-8.27-18.72-19.8-30.69-28.3-44.56-2.56-4.18-7.05-7.73-4.84-13.72,1.38-3.75,2.26-8.35,6.17-9.75,4.84-1.74,6.58,3.02,8.77,6.2,25.92,37.64,56.28,71.19,91.19,100.76,10.49,8.88,21.68,16.57,33.3,23.61,8.15,4.93,9.57,10.58,5.39,18.35-5.08,9.47-10.12,2.05-15.35-.07-31.02-12.61-61.61-26.98-96.56-23.71-8.53.8-16.98,1.8-24.81,5.52-4.67,2.21-10.08,5.72-12.61-1.6-2.1-6.08.95-10.91,7.54-13.08,19.72-6.49,39.73-9.26,60.36-5.24,5.84,1.14,11.7,2.23,20.64,3.94-3.33-4.45-4.24-7.04-5.9-7.68-56.61-22.04-112.25-47-172.26-59.03-8.85-1.77-18.07-1.65-27.1-2.62-5.81-.63-13.68,1.19-12.24-9.25,1.17-8.53,7.13-8.75,13.87-8.68,31.17.33,60.42,9.74,89.66,18.91,19.98,6.27,39.63,13.6,63.1,21.73Z"/>
</svg>