<?xml version="1.0" encoding="UTF-8"?>
<svg id="Layer_1" data-name="Layer 1" xmlns="http://www.w3.org/2000/svg" viewBox="0 0 215.09 26.33">
  <defs>
    <style>
      .cls-1 {
        fill: #e95959;
      }
    </style>
  </defs>
  <path class="cls-1" d="m2.71,8.44c.95.36.94,1.17.59,1.9-.73,1.51-1.81.22-2.65.09-.93-.15-.66-1.07-.36-1.74.65-1.44,1.56-.5,2.42-.25Z"/>
  <path class="cls-1" d="m7.16,9.57c.96.32.98,1.13.66,1.87-.67,1.54-1.8.3-2.65.2-.93-.11-.7-1.04-.42-1.73.59-1.46,1.54-.57,2.41-.35Z"/>
  <path class="cls-1" d="m10.99,10.75c.99.18,1.11.99.87,1.76-.49,1.62-1.75.55-2.6.57-.94.02-.81-.93-.62-1.65.42-1.53,1.46-.77,2.35-.68Z"/>
  <path class="cls-1" d="m15.17,11.61c.98.24,1.05,1.05.78,1.82-.57,1.59-1.77.44-2.63.41-.94-.04-.76-.98-.53-1.69.5-1.5,1.5-.68,2.38-.53Z"/>
  <path class="cls-1" d="m19.38,12.28c.99.19,1.1,1,.86,1.77-.5,1.61-1.75.54-2.61.55-.94.02-.81-.94-.61-1.66.43-1.53,1.47-.76,2.35-.66Z"/>
  <path class="cls-1" d="m23.74,12.66c1,.15,1.14.95.93,1.73-.44,1.64-1.73.61-2.59.66-.94.06-.84-.9-.67-1.63.37-1.55,1.44-.83,2.33-.77Z"/>
  <path class="cls-1" d="m27.97,12.91c1-.08,1.29.68,1.23,1.49-.13,1.7-1.58.98-2.41,1.22-.91.26-.99-.7-.96-1.45.08-1.6,1.25-1.13,2.14-1.26Z"/>
  <path class="cls-1" d="m32.34,12.44c.99-.19,1.35.52,1.37,1.34.04,1.7-1.47,1.16-2.27,1.49-.88.37-1.05-.58-1.09-1.33-.08-1.6,1.14-1.27,2-1.51Z"/>
  <path class="cls-1" d="m36.87,12.24c.99-.19,1.35.52,1.37,1.34.04,1.7-1.47,1.16-2.27,1.49-.88.37-1.05-.58-1.09-1.33-.08-1.6,1.14-1.27,2-1.51Z"/>
  <path class="cls-1" d="m41.39,11.46c.99-.19,1.35.52,1.37,1.34.04,1.7-1.47,1.16-2.27,1.49-.88.37-1.05-.58-1.09-1.33-.08-1.6,1.14-1.27,2-1.51Z"/>
  <path class="cls-1" d="m45.79,10.74c.97-.28,1.38.4,1.46,1.21.17,1.69-1.38,1.29-2.15,1.69-.85.45-1.1-.48-1.19-1.23-.2-1.58,1.04-1.37,1.88-1.68Z"/>
  <path class="cls-1" d="m50.41,9.97c.98-.24,1.37.46,1.42,1.28.11,1.7-1.43,1.22-2.22,1.6-.86.41-1.08-.53-1.14-1.28-.14-1.59,1.09-1.32,1.94-1.59Z"/>
  <path class="cls-1" d="m55.09,8.85c.96-.33,1.4.33,1.51,1.14.24,1.68-1.33,1.36-2.08,1.8-.83.49-1.11-.42-1.24-1.17-.27-1.57.98-1.42,1.81-1.77Z"/>
  <path class="cls-1" d="m59.67,7.57c.96-.32,1.4.34,1.51,1.15.23,1.69-1.34,1.34-2.09,1.78-.83.48-1.11-.44-1.23-1.18-.26-1.57.99-1.41,1.82-1.76Z"/>
  <path class="cls-1" d="m64.28,6.45c.96-.33,1.4.33,1.51,1.14.24,1.68-1.33,1.35-2.08,1.79-.83.48-1.11-.43-1.24-1.17-.27-1.57.98-1.41,1.81-1.77Z"/>
  <path class="cls-1" d="m68.81,5.29c.96-.33,1.4.33,1.52,1.13.25,1.68-1.32,1.36-2.07,1.81-.83.49-1.12-.42-1.24-1.16-.27-1.57.97-1.42,1.8-1.78Z"/>
  <path class="cls-1" d="m73.29,4.08c.98-.25,1.37.44,1.43,1.26.13,1.7-1.42,1.24-2.2,1.63-.86.42-1.08-.51-1.16-1.26-.16-1.59,1.07-1.33,1.92-1.62Z"/>
  <path class="cls-1" d="m77.89,3.01c.99-.19,1.35.52,1.37,1.34.04,1.7-1.47,1.16-2.27,1.49-.88.37-1.05-.58-1.09-1.33-.08-1.6,1.14-1.27,2-1.51Z"/>
  <path class="cls-1" d="m82.15,2.14c.99-.19,1.35.52,1.37,1.34.04,1.7-1.47,1.16-2.27,1.49-.88.37-1.05-.58-1.09-1.33-.08-1.6,1.14-1.27,2-1.51Z"/>
  <path class="cls-1" d="m86.61,1.11c.99-.19,1.35.52,1.37,1.34.04,1.7-1.47,1.16-2.27,1.49-.88.37-1.05-.58-1.09-1.33-.08-1.6,1.14-1.27,2-1.51Z"/>
  <path class="cls-1" d="m91,.42c.99-.19,1.35.52,1.37,1.34.04,1.7-1.47,1.16-2.27,1.49-.88.37-1.05-.58-1.09-1.33-.08-1.6,1.14-1.27,2-1.51Z"/>
  <path class="cls-1" d="m95.75.08c1.01.01,1.23.79,1.11,1.6-.25,1.68-1.65.84-2.49,1-.93.18-.94-.78-.84-1.53.19-1.58,1.33-1.01,2.22-1.07Z"/>
  <path class="cls-1" d="m100.47.11c1,.06,1.2.85,1.04,1.65-.32,1.67-1.68.75-2.53.88-.93.14-.9-.83-.78-1.57.26-1.57,1.37-.95,2.27-.96Z"/>
  <path class="cls-1" d="m105.19.59c1,.08,1.19.87,1.02,1.66-.34,1.66-1.69.73-2.54.84-.93.12-.89-.84-.76-1.58.28-1.57,1.39-.93,2.28-.93Z"/>
  <path class="cls-1" d="m109.72,1.31c1,.11,1.16.91.97,1.7-.4,1.65-1.71.67-2.57.74-.94.09-.87-.87-.71-1.61.33-1.56,1.41-.87,2.31-.84Z"/>
  <path class="cls-1" d="m114.69,3.15c.89.51.76,1.32.31,1.97-.93,1.37-1.82-.08-2.64-.36-.9-.3-.5-1.16-.11-1.78.84-1.31,1.61-.23,2.43.16Z"/>
  <path class="cls-1" d="m119,5.47c.87.55.72,1.34.26,1.98-.97,1.33-1.81-.15-2.62-.45-.89-.33-.47-1.18-.05-1.78.88-1.28,1.62-.17,2.42.25Z"/>
  <path class="cls-1" d="m123.22,7.62c.87.56.71,1.35.23,1.99-.99,1.32-1.81-.17-2.62-.49-.88-.35-.45-1.19-.03-1.78.9-1.27,1.62-.15,2.42.29Z"/>
  <path class="cls-1" d="m127.31,9.73c.89.51.77,1.31.33,1.97-.92,1.37-1.82-.07-2.64-.34-.9-.3-.51-1.16-.12-1.78.83-1.32,1.61-.24,2.43.14Z"/>
  <path class="cls-1" d="m131.7,11.86c.92.44.85,1.25.45,1.94-.83,1.44-1.82.07-2.65-.14-.92-.23-.58-1.12-.23-1.77.75-1.38,1.59-.37,2.43-.04Z"/>
  <path class="cls-1" d="m136.04,13.67c.95.36.94,1.18.58,1.9-.73,1.5-1.81.22-2.65.08-.93-.15-.66-1.07-.35-1.74.65-1.43,1.56-.49,2.42-.24Z"/>
  <path class="cls-1" d="m140.36,15.26c.95.37.93,1.18.58,1.9-.74,1.5-1.81.21-2.66.07-.93-.15-.65-1.07-.35-1.74.65-1.43,1.56-.49,2.42-.23Z"/>
  <path class="cls-1" d="m144.62,16.59c.93.42.87,1.23.49,1.93-.81,1.46-1.82.11-2.65-.08-.92-.21-.6-1.11-.26-1.76.72-1.39,1.58-.4,2.43-.09Z"/>
  <path class="cls-1" d="m149.07,17.94c.94.4.9,1.21.53,1.92-.78,1.48-1.81.16-2.66-.01-.92-.18-.63-1.09-.3-1.75.69-1.41,1.58-.44,2.43-.15Z"/>
  <path class="cls-1" d="m153.34,18.78c.99.2,1.09,1.01.84,1.78-.51,1.61-1.76.52-2.61.52-.94,0-.8-.95-.59-1.66.44-1.52,1.47-.75,2.36-.64Z"/>
  <path class="cls-1" d="m158.06,20.09c.99.21,1.08,1.02.83,1.79-.53,1.6-1.76.5-2.62.49-.94,0-.79-.95-.58-1.67.46-1.52,1.48-.73,2.37-.61Z"/>
  <path class="cls-1" d="m162.65,20.71c1,.08,1.19.87,1.02,1.67-.35,1.66-1.69.73-2.54.83-.93.12-.89-.84-.76-1.58.28-1.57,1.39-.92,2.28-.92Z"/>
  <path class="cls-1" d="m167.37,21.48c1,.09,1.18.88,1.01,1.67-.35,1.66-1.7.72-2.55.82-.93.11-.89-.85-.75-1.59.29-1.57,1.39-.91,2.28-.91Z"/>
  <path class="cls-1" d="m172.16,22.24c1,.13,1.15.93.95,1.72-.42,1.64-1.72.64-2.58.7-.94.07-.85-.89-.69-1.62.35-1.55,1.43-.85,2.32-.8Z"/>
  <path class="cls-1" d="m176.81,22.88c1,.08,1.19.87,1.03,1.66-.34,1.66-1.69.73-2.54.84-.93.12-.89-.84-.76-1.58.28-1.57,1.39-.93,2.28-.93Z"/>
  <path class="cls-1" d="m181.46,23.2c1,.07,1.19.86,1.03,1.66-.34,1.66-1.69.74-2.54.85-.93.13-.9-.84-.77-1.58.27-1.57,1.38-.93,2.27-.93Z"/>
  <path class="cls-1" d="m185.89,23.48c1-.06,1.28.7,1.21,1.51-.15,1.7-1.59.96-2.42,1.19-.91.25-.98-.71-.94-1.46.09-1.6,1.27-1.11,2.15-1.23Z"/>
  <path class="cls-1" d="m190.47,23.5c1-.12,1.31.62,1.28,1.43-.06,1.7-1.54,1.05-2.36,1.33-.9.3-1.02-.65-1.01-1.4.01-1.6,1.21-1.18,2.09-1.36Z"/>
  <path class="cls-1" d="m194.91,23.4c.99-.19,1.35.52,1.37,1.34.04,1.7-1.47,1.16-2.27,1.49-.88.37-1.05-.58-1.09-1.33-.08-1.6,1.14-1.27,2-1.51Z"/>
  <path class="cls-1" d="m199.55,23.4c.99-.19,1.35.52,1.37,1.34.04,1.7-1.47,1.16-2.27,1.49-.88.37-1.05-.58-1.09-1.33-.08-1.6,1.14-1.27,2-1.51Z"/>
  <path class="cls-1" d="m204.31,23.03c.99-.19,1.35.52,1.37,1.34.04,1.7-1.47,1.16-2.27,1.49-.88.37-1.05-.58-1.09-1.33-.08-1.6,1.14-1.27,2-1.51Z"/>
  <path class="cls-1" d="m209.02,22.38c.99-.19,1.35.52,1.37,1.34.04,1.7-1.47,1.16-2.27,1.49-.88.37-1.05-.58-1.09-1.33-.08-1.6,1.14-1.27,2-1.51Z"/>
  <path class="cls-1" d="m213.72,21.93c.99-.19,1.35.52,1.37,1.34.04,1.7-1.47,1.16-2.27,1.49-.88.37-1.05-.58-1.09-1.33-.08-1.6,1.14-1.27,2-1.51Z"/>
</svg>