<?xml version="1.0" encoding="UTF-8"?>
<svg id="Layer_1" data-name="Layer 1" xmlns="http://www.w3.org/2000/svg" viewBox="0 0 1270.08 160.84">
  <defs>
    <style>
      .cls-1 {
        fill: #80c679;
      }

      .cls-2 {
        fill: #e8595a;
      }
    </style>
  </defs>
  <path class="cls-1" d="m574.19,37.02c27.44,7.99,26.75,7.53,40.23-12.62,6.22-9.3,9.35-26.98,22.08-24.09,7.19,1.64,1.45,19.56,1.08,30.05-.8,22.5-1.29,22.63,20.63,27.48,9.12,2.02,18.39,3.44,27.64,4.8,7.48,1.1,8.07,3.72,4.35,10.25-5.95,10.46-16.08,10.51-25.57,11.72-26,3.32-26.03,3.07-23.03,29.35.47,4.11,1.98,8.36,1.34,12.27-.93,5.75-4.6,12.02-9.56,13.37-5.04,1.36-5.31-6.19-7.71-9.85-5.7-8.68-12-16.97-17.55-25.74-4.17-6.6-8.78-7.36-15.72-4.23-11.37,5.14-22.5,10.59-32.57,18-2.75,2.03-4.79,6.19-9.11,3.09-4.15-2.97-2.87-6.74-2.16-11.12,2-12.31,13.02-17.1,20.07-24.98,9.31-10.4,12.52-18.42-2.38-26.24-4.96-2.6-8.92-7.08-13.37-10.67-3.58-2.89-8.57-5.42-4.88-11.12,2.75-4.24,7.1-6.11,12.23-4.48,5.94,1.89,11.81,4.01,13.97,4.75Zm37.74,27.5c-4.55.2-11.44-5.54-13.28.7-1.68,5.7,4.8,11.03,10.65,12.87,5.38,1.69,12.64.9,13.76-5.64,1.18-6.96-6.79-5.78-11.13-7.94Zm13.28-39.41c-6.37,4.31-7.44,10.3-10.63,14.89-1.91,2.75-2.64,5.7,1.56,7.32,3.77,1.45,7.47,1.64,8.49-3.2,1.25-5.97,2.58-12.07.57-19Z"/>
  <path class="cls-2" d="m15.04,77.72c7.56-1.3,10.52,2.52,10.92,6.98.82,9.29-11.01,6.69-17.06,8.72-6.64,2.22-8.29-2.89-8.8-6.99-1.1-8.69,8.37-7.2,14.95-8.71Z"/>
  <path class="cls-2" d="m51.09,71.56c7.39-1.81,10.77,1.8,11.66,6.22,1.87,9.2-10.21,7.41-16.01,9.83-6.37,2.66-8.58-2.32-9.56-6.37-2.08-8.59,7.52-7.74,13.91-9.69Z"/>
  <path class="cls-2" d="m86.4,64.61c7.41-1.76,10.74,1.88,11.59,6.3,1.76,9.21-10.3,7.34-16.13,9.72-6.4,2.62-8.55-2.38-9.49-6.43-1.98-8.6,7.61-7.68,14.02-9.59Z"/>
  <path class="cls-2" d="m121.85,58.46c7.4-1.79,10.76,1.83,11.64,6.24,1.83,9.2-10.24,7.39-16.05,9.8-6.38,2.65-8.57-2.34-9.54-6.39-2.05-8.59,7.55-7.72,13.95-9.66Z"/>
  <path class="cls-2" d="m156.73,52.14c7.38-1.82,10.77,1.78,11.69,6.19,1.91,9.19-10.18,7.43-15.97,9.87-6.36,2.68-8.59-2.3-9.58-6.34-2.11-8.58,7.49-7.75,13.87-9.72Z"/>
  <path class="cls-2" d="m191.29,45.52c7.54-1.37,10.56,2.42,11.03,6.88.97,9.28-10.9,6.8-16.92,8.88-6.61,2.29-8.33-2.81-8.92-6.9-1.24-8.68,8.25-7.28,14.81-8.85Z"/>
  <path class="cls-2" d="m226.72,39.68c7.63-1.06,10.38,2.85,10.54,7.32.33,9.3-11.36,6.34-17.51,8.17-6.76,2.01-8.12-3.15-8.43-7.26-.64-8.72,8.74-6.93,15.4-8.23Z"/>
  <path class="cls-2" d="m259.47,34.89c7.63-1.06,10.38,2.85,10.54,7.32.33,9.3-11.36,6.34-17.51,8.17-6.76,2.01-8.12-3.15-8.43-7.26-.64-8.72,8.74-6.93,15.4-8.23Z"/>
  <path class="cls-2" d="m293.83,29.3c7.63-1.06,10.38,2.85,10.54,7.32.33,9.3-11.36,6.34-17.51,8.17-6.76,2.01-8.12-3.15-8.43-7.26-.64-8.72,8.74-6.93,15.4-8.23Z"/>
  <path class="cls-2" d="m327.64,25.51c7.63-1.06,10.38,2.85,10.54,7.32.33,9.3-11.36,6.34-17.51,8.17-6.76,2.01-8.12-3.15-8.43-7.26-.64-8.72,8.74-6.93,15.4-8.23Z"/>
  <path class="cls-2" d="m364.25,23.68c7.75.07,9.5,4.31,8.56,8.72-1.94,9.19-12.7,4.57-19.19,5.47-7.13.99-7.21-4.28-6.51-8.36,1.5-8.66,10.27-5.53,17.13-5.84Z"/>
  <path class="cls-2" d="m400.56,23.84c7.74.34,9.24,4.64,8.04,9.01-2.48,9.11-12.95,4.12-19.49,4.8-7.18.74-6.95-4.52-6.01-8.57,2-8.6,10.59-5.17,17.46-5.24Z"/>
  <path class="cls-2" d="m436.9,26.46c7.73.42,9.16,4.73,7.89,9.09-2.63,9.08-13.02,3.99-19.57,4.6-7.19.67-6.88-4.59-5.87-8.63,2.15-8.58,10.67-5.06,17.54-5.06Z"/>
  <path class="cls-2" d="m471.79,30.39c7.71.63,8.94,4.98,7.47,9.3-3.04,9.01-13.19,3.64-19.77,4.07-7.21.47-6.66-4.78-5.47-8.79,2.53-8.51,10.9-4.77,17.76-4.58Z"/>
  <path class="cls-2" d="m510.11,40.43c6.84,2.81,5.88,7.2,2.42,10.79-7.19,7.47-14-.44-20.3-1.94-6.92-1.65-3.87-6.36-.82-9.73,6.47-7.16,12.41-1.27,18.69.89Z"/>
  <path class="cls-2" d="m543.32,53.08c6.72,2.98,5.57,7.34,1.96,10.84-7.5,7.28-13.97-.8-20.21-2.46-6.84-1.82-3.59-6.45-.4-9.75,6.78-6.99,12.46-.95,18.64,1.36Z"/>
  <path class="cls-2" d="m772.38,121.93c7.19,1.43,7,5.95,4.23,10.16-5.76,8.77-13.8,2.3-20.23,2.05-7.07-.27-4.88-5.51-2.47-9.43,5.12-8.32,11.95-3.68,18.47-2.77Z"/>
  <path class="cls-2" d="m804.94,129.67c7.38.64,7.78,5.11,5.57,9.56-4.6,9.27-13.49,3.76-19.96,4.21-7.1.49-5.61-4.91-3.72-9.03,4.02-8.76,11.46-4.92,18.11-4.73Z"/>
  <path class="cls-2" d="m836.75,131.32c7.49-.2,8.52,4.14,6.93,8.76-3.31,9.61-13.01,5.19-19.43,6.36-7.05,1.28-6.32-4.19-5-8.45,2.8-9.04,10.81-6.1,17.5-6.67Z"/>
  <path class="cls-2" d="m870.54,134.76c7.47-.62,8.74,3.66,7.41,8.36-2.77,9.78-12.69,5.91-19.05,7.43-6.97,1.67-6.54-3.83-5.46-8.16,2.29-9.19,10.45-6.7,17.1-7.64Z"/>
  <path class="cls-2" d="m674.52,97.93c7.31,1.98,7.21,6.43,4.5,10.38-5.65,8.22-13.92,1.19-20.45.44-7.16-.82-5.06-5.83-2.71-9.52,5-7.83,12.02-2.7,18.65-1.3Z"/>
  <path class="cls-2" d="m707.77,106.59c7.31,2,7.19,6.45,4.47,10.39-5.67,8.21-13.93,1.16-20.45.4-7.16-.84-5.04-5.84-2.67-9.53,5.03-7.82,12.03-2.68,18.65-1.26Z"/>
  <path class="cls-2" d="m738.85,113.91c7.31,2,7.19,6.45,4.47,10.39-5.67,8.21-13.93,1.16-20.45.4-7.16-.84-5.04-5.84-2.67-9.53,5.03-7.82,12.03-2.68,18.65-1.26Z"/>
  <path class="cls-2" d="m903.89,137.71c7.73.44,9.14,4.75,7.86,9.11-2.67,9.08-13.04,3.96-19.59,4.56-7.19.65-6.86-4.61-5.83-8.65,2.18-8.57,10.69-5.04,17.56-5.02Z"/>
  <path class="cls-2" d="m940.27,139.32c7.73.47,9.11,4.79,7.8,9.14-2.73,9.07-13.06,3.91-19.62,4.48-7.2.62-6.83-4.64-5.77-8.67,2.24-8.56,10.73-4.99,17.6-4.95Z"/>
  <path class="cls-2" d="m977.08,140.06c7.69.72,8.83,5.08,7.28,9.39-3.23,8.97-13.27,3.48-19.85,3.83-7.22.38-6.57-4.86-5.29-8.85,2.71-8.48,10.99-4.63,17.85-4.37Z"/>
  <path class="cls-2" d="m1011.54,142.02c7.73.41,9.16,4.73,7.9,9.09-2.63,9.08-13.02,4-19.57,4.61-7.19.67-6.88-4.59-5.87-8.63,2.14-8.58,10.67-5.06,17.54-5.07Z"/>
  <path class="cls-2" d="m1047.33,143.78c7.73.4,9.18,4.71,7.93,9.07-2.59,9.09-13,4.03-19.55,4.65-7.19.69-6.9-4.58-5.9-8.62,2.11-8.58,10.65-5.09,17.52-5.11Z"/>
  <path class="cls-2" d="m1081.42,145.28c7.74-.34,9.86,3.8,9.32,8.25-1.12,9.27-12.26,5.23-18.66,6.48-7.02,1.37-7.57-3.88-7.23-7.99.73-8.72,9.76-6.06,16.57-6.74Z"/>
  <path class="cls-2" d="m1116.75,145.42c7.7-.67,10.11,3.37,9.89,7.84-.46,9.3-11.87,5.75-18.17,7.27-6.91,1.66-7.84-3.55-7.79-7.67.1-8.73,9.31-6.47,16.06-7.44Z"/>
  <path class="cls-2" d="m1150.92,144.86c7.63-1.06,10.38,2.85,10.54,7.32.33,9.3-11.36,6.34-17.51,8.17-6.76,2.01-8.12-3.15-8.43-7.26-.64-8.72,8.74-6.93,15.4-8.23Z"/>
  <path class="cls-2" d="m1186.65,144.86c7.63-1.06,10.38,2.85,10.54,7.32.33,9.3-11.36,6.34-17.51,8.17-6.76,2.01-8.12-3.15-8.43-7.26-.64-8.72,8.74-6.93,15.4-8.23Z"/>
  <path class="cls-2" d="m1223.33,142.84c7.63-1.06,10.38,2.85,10.54,7.32.33,9.3-11.36,6.34-17.51,8.17-6.76,2.01-8.12-3.15-8.43-7.26-.64-8.72,8.74-6.93,15.4-8.23Z"/>
  <path class="cls-2" d="m1259.54,139.26c7.63-1.06,10.38,2.85,10.54,7.32.33,9.3-11.36,6.34-17.51,8.17-6.76,2.01-8.12-3.15-8.43-7.26-.64-8.72,8.74-6.93,15.4-8.23Z"/>
</svg>