<?xml version="1.0" encoding="UTF-8"?>
<svg id="Layer_1" data-name="Layer 1" xmlns="http://www.w3.org/2000/svg" viewBox="0 0 99.27 127.08">
  <defs>
    <style>
      .cls-1 {
        fill: #e95959;
      }
    </style>
  </defs>
  <path class="cls-1" d="m40.28,30.48c7.78,11.54,16.38,23.26,23.78,35.69,3.92,6.59,7.4,5.82,12.24,2.17.51-.39.88-.99,1.42-1.31,4.29-2.54,8.27-8.24,13.4-5.78,4.82,2.31-.18,7.47.04,11.47.86,15.52,2.52,30.85,6.96,45.8.76,2.57,2.75,5.67-1.52,7.28-3.29,1.24-5.95,2.57-9.28-1.27-12.99-14.96-29.45-24.8-48.38-30.48-1.83-.55-4.01-.36-4.41-2.85-.44-2.78,1.48-4.07,3.6-5.05,4.39-2.01,8.77-4.04,13.23-5.89,5.38-2.22,6.47-4.99,3.03-10.27-12.36-18.95-24.72-37.81-42.7-52.14-3.27-2.61-6.21-5.64-9.27-8.51C.07,7.11-1.31,4.58,1.82,2.03,4.12.16,6.69-1.17,9.53,1.53c10.05,9.53,20.17,19,30.75,28.95Zm43.33,75.6c-.95-10.25-1.73-18.79-2.54-27.32-.22-2.31-.94-5.49-3.77-3.44-7.32,5.3-16.05,7.62-25.14,11.37,10.87,6.7,20.31,12.52,31.45,19.39Z"/>
</svg>