<?xml version="1.0" encoding="UTF-8"?>
<svg id="Layer_1" data-name="Layer 1" xmlns="http://www.w3.org/2000/svg" viewBox="0 0 104.81 102.47">
  <defs>
    <style>
      .cls-1 {
        fill: #e8595a;
      }
    </style>
  </defs>
  <path class="cls-1" d="m53.02,102.05C18.87,104.56-1.28,75.81.06,54.35,1.78,26.9,17.16-1.72,44.6.08c38,2.5,57.6,23.91,60.15,56.64,1.58,20.28-27.2,49.63-51.73,45.33Zm4-9.81c29.37.27,43.62-18.95,34.88-46.72-6.63-21.09-21.91-31.3-42.68-35.03-19.29-3.46-35.93,7.99-39.09,26.99-5.43,32.66,13.23,54.45,46.88,54.76Z"/>
  <path class="cls-1" d="m20.89,46.21c.18-3.43.09-6.91.63-10.29.53-3.3,2.75-6.21,6.17-5.8,4.06.49,2.57,4.29,2.17,6.71-1.77,10.73.67,20.44,6.23,29.62,4.23,6.97,10.25,12.05,18.34,10.94,8.09-1.1,14.41-6.7,17.39-14.5,2.71-7.07,3.8-14.61,2.5-22.32-.68-4-.19-8.36,4.72-8.66,5.2-.31,5.25,4.26,5.4,8.15.78,20.8-9.55,35.41-26.39,45.84-8.78,5.44-23.1.05-29.42-10.29-5.49-8.99-9.03-18.58-7.74-29.41Z"/>
  <path class="cls-1" d="m42.94,39.69c.71-4.79-.53-9.03,1.85-12.74,1.33-2.08,2.92-3.92,5.73-3.22,3.35.83,2.4,3.39,2.2,5.75-.42,5.06-.5,10.14-1.01,15.19-.34,3.42-1.29,7.58-5.27,7.56-4.13-.02-3.19-4.38-3.47-7.23-.2-2.02-.04-4.07-.04-5.3Z"/>
  <path class="cls-1" d="m67.33,33.64c-1.86,4.81.39,13.27-6.59,14.13-4.86.6-2.54-6.5-3.13-10.14-.76-4.72.6-9.3,5.95-10.15,3.6-.57,3.97,2.88,3.76,6.15Z"/>
</svg>