<?xml version="1.0" encoding="UTF-8"?>
<svg id="Layer_1" data-name="Layer 1" xmlns="http://www.w3.org/2000/svg" viewBox="0 0 116.52 95.71">
  <defs>
    <style>
      .cls-1 {
        fill: #e8595a;
      }
    </style>
  </defs>
  <path class="cls-1" d="m35.29,0c7.57.55,15,5.43,19.65,12.77,3.96,6.26,5.32,4.67,9.3.44C74.84,1.97,87.31-3.25,102.91,2.91c12.28,4.85,16.25,11.98,11.91,24.74-6.44,18.94-19.61,32.78-35.32,44.42-8.11,6.01-17.58,10.38-21.98,20.48-1.02,2.33-3.9,4.81-6.27,1.71-12.37-16.22-30.86-26.31-42.72-43.01C-1.63,36.91-2.65,25.72,5.12,13.63,11.79,3.25,22.2.86,35.29,0Zm71.32,28.15c.05-5-.35-8.58-2.97-10.05-6.46-3.63-13.12-8.13-21.09-5.32-9.85,3.47-19.22,7.39-17.52,21.08.52,4.22-1.17,10.59-5.51,11.25-5.37.82-4.28-5.9-5.78-9.42-3.55-8.31-6.4-16.93-15.25-21.6-6.79-3.58-22.5-1.88-27.45,3.83-6.22,7.17-1.11,13.57,2.43,19.51,7.01,11.78,17.6,20.52,27.18,30.05,8.7,8.65,17.71,11.16,27.46.65,3.47-3.75,8.96-5.53,13.11-8.76,11.3-8.81,22.39-17.89,25.39-31.23Z"/>
</svg>