<?xml version="1.0" encoding="UTF-8"?>
<svg id="Layer_1" data-name="Layer 1" xmlns="http://www.w3.org/2000/svg" viewBox="0 0 145.74 139.77">
  <defs>
    <style>
      .cls-1 {
        fill: #e6c858;
      }
    </style>
  </defs>
  <path class="cls-1" d="m27.5,37.02c27.44,7.99,26.75,7.53,40.23-12.62,6.22-9.3,9.35-26.98,22.08-24.09,7.19,1.64,1.45,19.56,1.08,30.05-.8,22.5-1.29,22.63,20.63,27.48,9.12,2.02,18.39,3.44,27.64,4.8,7.48,1.1,8.07,3.72,4.35,10.25-5.95,10.46-16.08,10.51-25.57,11.72-26,3.32-26.03,3.07-23.03,29.35.47,4.11,1.98,8.36,1.34,12.27-.93,5.75-4.6,12.02-9.56,13.37-5.04,1.36-5.31-6.19-7.71-9.85-5.7-8.68-12-16.97-17.55-25.74-4.17-6.6-8.78-7.36-15.72-4.23-11.37,5.14-22.5,10.59-32.57,18-2.75,2.03-4.79,6.19-9.11,3.09-4.15-2.97-2.87-6.74-2.16-11.12,2-12.31,13.02-17.1,20.07-24.98,9.31-10.4,12.52-18.42-2.38-26.24-4.96-2.6-8.92-7.08-13.37-10.67-3.58-2.89-8.57-5.42-4.88-11.12,2.75-4.24,7.1-6.11,12.23-4.48,5.94,1.89,11.81,4.01,13.97,4.75Zm37.74,27.5c-4.55.2-11.44-5.54-13.28.7-1.68,5.7,4.8,11.03,10.65,12.87,5.38,1.69,12.64.9,13.76-5.64,1.18-6.96-6.79-5.78-11.13-7.94Zm13.28-39.41c-6.37,4.31-7.44,10.3-10.63,14.89-1.91,2.75-2.64,5.7,1.56,7.32,3.77,1.45,7.47,1.64,8.49-3.2,1.25-5.97,2.58-12.07.57-19Z"/>
</svg>