<?xml version="1.0" encoding="UTF-8"?>
<svg id="Layer_1" data-name="Layer 1" xmlns="http://www.w3.org/2000/svg" viewBox="0 0 189.73 104.06">
  <defs>
    <style>
      .cls-1 {
        fill: #e6c858;
      }
    </style>
  </defs>
  <path class="cls-1" d="m112.72,46.23c-5.59-12.65-13.38-20.74-19.13-30.12-1.73-2.83-4.76-5.23-3.27-9.27.94-2.54,1.53-5.64,4.17-6.59,3.27-1.17,4.45,2.04,5.93,4.19,17.52,25.43,38.03,48.11,61.62,68.09,7.09,6,14.65,11.2,22.5,15.95,5.51,3.33,6.47,7.15,3.64,12.4-3.43,6.4-6.84,1.39-10.37-.05-20.96-8.52-41.64-18.23-65.26-16.02-5.77.54-11.47,1.22-16.77,3.73-3.15,1.5-6.81,3.86-8.52-1.08-1.42-4.11.64-7.37,5.1-8.84,13.33-4.39,26.85-6.26,40.79-3.54,3.95.77,7.9,1.51,13.95,2.66-2.25-3.01-2.87-4.76-3.99-5.19-38.26-14.9-75.85-31.76-116.41-39.89-5.98-1.2-12.21-1.11-18.31-1.77-3.92-.42-9.24.81-8.27-6.25.79-5.76,4.82-5.91,9.37-5.86,21.06.22,40.83,6.58,60.59,12.78,13.5,4.24,26.78,9.19,42.64,14.69Z"/>
</svg>