<?xml version="1.0" encoding="UTF-8"?>
<svg id="Layer_1" data-name="Layer 1" xmlns="http://www.w3.org/2000/svg" viewBox="0 0 100.15 3.31">
  <defs>
    <style>
      .cls-1 {
        fill: #e6c959;
      }
    </style>
  </defs>
  <path class="cls-1" d="m14.99,3.29c-2.81-.16-7.8-.43-12.8-.26C.98,3.07.03,2.96,0,1.55-.03-.07,1.1.02,2.36,0c8.92-.08,17.82.96,26.75.46,1.07-.06,2.13-.17,3.2-.18.84,0,2.14-.78,2.21.81.06,1.25-.31,2.24-2.1,2.22-5.08-.07-10.17-.02-17.43-.02Z"/>
  <path class="cls-1" d="m48.33,3.29c-2.81-.16-7.8-.43-12.8-.26-1.21.04-2.16-.07-2.19-1.48-.03-1.62,1.1-1.53,2.36-1.54,8.92-.08,17.82.96,26.75.46,1.07-.06,2.13-.17,3.2-.18.84,0,2.14-.78,2.21.81.06,1.25-.31,2.24-2.1,2.22-5.08-.07-10.17-.02-17.43-.02Z"/>
  <path class="cls-1" d="m80.61,3.29c-2.81-.16-7.8-.43-12.8-.26-1.21.04-2.16-.07-2.19-1.48-.03-1.62,1.1-1.53,2.36-1.54,8.92-.08,17.82.96,26.75.46,1.07-.06,2.13-.17,3.2-.18.84,0,2.14-.78,2.21.81.06,1.25-.31,2.24-2.1,2.22-5.08-.07-10.17-.02-17.43-.02Z"/>
</svg>