<?xml version="1.0" encoding="UTF-8"?>
<svg id="Layer_1" data-name="Layer 1" xmlns="http://www.w3.org/2000/svg" viewBox="0 0 171.17 94.14">
  <defs>
    <style>
      .cls-1 {
        fill: #31a0c5;
        stroke: #31a0c5;
        stroke-miterlimit: 10;
        stroke-width: 3px;
      }
    </style>
  </defs>
  <path class="cls-1" d="m37.71,80.88c31.85-24.79,66.28-41.27,108.11-31.68,18.34,4.2,26.29,14.07,23.18,27.26-2.69,11.42-15.61,18.2-31.43,15.66-7.13-1.14-14.54-2.76-20.94-5.93-25.63-12.67-51.64-13.59-78.92-5.31Zm30.72-14.04c16.41,4.64,32.95,9.28,49.45,14.02,7.51,2.16,14.82,5.64,22.46,6.54,10.42,1.23,21.44-.2,23.98-12.93,2.71-13.57-8.17-17.14-18.14-19.74-28.24-7.36-54.16-.18-77.75,12.12Z"/>
  <path class="cls-1" d="m89.68,44.56c-20.66-2.44-42.05-4.95-63.43-7.52-3.33-.4-7.23-.16-9.8-1.85-5.67-3.71-14.4-8.06-14.91-12.88-.53-5.05,5.9-13.13,11.36-16.13,27.82-15.27,72.61,9.23,76.79,38.37Zm-10.94-8.97C66.06,16.13,43.96,4.47,24.35,9.3c-6.62,1.63-12.08,7.97-18.07,12.15,6.27,3.5,12.24,9.15,18.86,10.07,17.48,2.44,35.25,2.82,53.6,4.07Z"/>
</svg>