<?xml version="1.0" encoding="UTF-8"?>
<svg id="Layer_1" data-name="Layer 1" xmlns="http://www.w3.org/2000/svg" viewBox="0 0 1280.04 1107.43">
  <defs>
    <style>
      .cls-1 {
        fill: #31a0c5;
      }

      .cls-2 {
        fill: #bd4e9d;
      }
    </style>
  </defs>
  <path class="cls-1" d="m1280.04,0v1091.29c-40.44,5.82-95.21,11.1-160.03,9.6-71.82-1.65-134.29-11.14-197.53-25-214.5-47.04-205.46-98.76-321.53-105.1-117.26-6.4-264,56.87-395.08,67.34-48.75,3.89-118.8,2.06-205.83-26.15L.01,327.65h-.01V0h1280.04Z"/>
  <g>
    <path class="cls-2" d="m16.15,1009.68c5.66,1.96,5.59,6.42,3.51,10.37-4.34,8.24-10.75,1.23-15.8.49-5.54-.81-3.93-5.82-2.12-9.52,3.84-7.84,9.28-2.73,14.41-1.34Z"/>
    <path class="cls-2" d="m42.66,1015.85c5.73,1.74,5.84,6.19,3.92,10.22-4.01,8.4-10.7,1.65-15.77,1.11-5.56-.59-4.16-5.66-2.49-9.43,3.53-7.99,9.17-3.09,14.34-1.91Z"/>
    <path class="cls-2" d="m65.44,1022.31c5.91,1,6.58,5.4,5.19,9.64-2.91,8.84-10.4,3-15.5,3.11-5.59.12-4.84-5.09-3.67-9.03,2.48-8.37,8.7-4.23,13.98-3.72Z"/>
    <path class="cls-2" d="m90.29,1027c5.84,1.33,6.26,5.76,4.63,9.92-3.41,8.66-10.56,2.4-15.65,2.22-5.59-.2-4.54-5.36-3.15-9.23,2.96-8.22,8.93-3.73,14.17-2.91Z"/>
    <path class="cls-2" d="m115.39,1030.66c5.9,1.04,6.55,5.44,5.12,9.68-2.97,8.82-10.42,2.93-15.52,3.01-5.59.09-4.81-5.12-3.61-9.06,2.54-8.36,8.73-4.18,14.01-3.63Z"/>
    <path class="cls-2" d="m141.31,1032.73c5.94.8,6.76,5.17,5.51,9.46-2.61,8.94-10.29,3.34-15.38,3.63-5.59.31-5.01-4.92-3.97-8.91,2.2-8.45,8.55-4.52,13.85-4.19Z"/>
    <path class="cls-2" d="m166.51,1034.11c5.97-.42,7.66,3.7,7.3,8.16-.75,9.28-9.41,5.35-14.34,6.66-5.41,1.43-5.9-3.81-5.69-7.92.45-8.72,7.47-6.16,12.72-6.9Z"/>
    <path class="cls-2" d="m192.51,1031.53c5.89-1.06,8.02,2.85,8.14,7.32.25,9.3-8.78,6.34-13.53,8.17-5.22,2.01-6.28-3.15-6.51-7.26-.49-8.72,6.76-6.93,11.9-8.23Z"/>
    <path class="cls-2" d="m219.47,1030.43c5.89-1.06,8.02,2.85,8.14,7.32.25,9.3-8.78,6.34-13.53,8.17-5.22,2.01-6.28-3.15-6.51-7.26-.49-8.72,6.76-6.93,11.9-8.23Z"/>
    <path class="cls-2" d="m246.36,1026.2c5.89-1.06,8.02,2.85,8.14,7.32.25,9.3-8.78,6.34-13.53,8.17-5.22,2.01-6.28-3.15-6.51-7.26-.49-8.72,6.76-6.93,11.9-8.23Z"/>
    <path class="cls-2" d="m272.55,1022.25c5.79-1.54,8.23,2.18,8.72,6.62,1.02,9.25-8.22,7.04-12.81,9.26-5.04,2.43-6.52-2.62-7.09-6.7-1.21-8.65,6.16-7.46,11.18-9.18Z"/>
    <path class="cls-2" d="m300.03,1018.08c5.85-1.3,8.13,2.52,8.44,6.98.64,9.29-8.51,6.69-13.18,8.72-5.13,2.22-6.4-2.89-6.8-6.99-.85-8.69,6.47-7.2,11.55-8.71Z"/>
    <path class="cls-2" d="m327.89,1011.92c5.71-1.81,8.32,1.8,9.01,6.22,1.44,9.2-7.89,7.41-12.37,9.83-4.92,2.66-6.63-2.32-7.39-6.37-1.61-8.59,5.81-7.74,10.75-9.69Z"/>
    <path class="cls-2" d="m355.17,1004.97c5.73-1.76,8.3,1.88,8.96,6.3,1.36,9.21-7.96,7.34-12.46,9.72-4.94,2.62-6.61-2.38-7.33-6.43-1.53-8.6,5.88-7.68,10.83-9.59Z"/>
    <path class="cls-2" d="m382.57,998.82c5.72-1.79,8.31,1.83,8.99,6.24,1.42,9.2-7.91,7.39-12.4,9.8-4.93,2.65-6.62-2.34-7.37-6.39-1.58-8.59,5.84-7.72,10.78-9.66Z"/>
    <path class="cls-2" d="m409.52,992.5c5.7-1.82,8.32,1.78,9.03,6.19,1.47,9.19-7.87,7.43-12.34,9.87-4.91,2.68-6.64-2.3-7.41-6.34-1.63-8.58,5.79-7.75,10.72-9.72Z"/>
    <path class="cls-2" d="m436.23,985.89c5.83-1.37,8.16,2.42,8.52,6.88.75,9.28-8.42,6.8-13.08,8.88-5.11,2.29-6.44-2.81-6.89-6.9-.96-8.68,6.38-7.28,11.44-8.85Z"/>
    <path class="cls-2" d="m463.6,980.04c5.89-1.06,8.02,2.85,8.14,7.32.25,9.3-8.78,6.34-13.53,8.17-5.22,2.01-6.28-3.15-6.51-7.26-.49-8.72,6.76-6.93,11.9-8.23Z"/>
    <path class="cls-2" d="m488.91,975.25c5.89-1.06,8.02,2.85,8.14,7.32.25,9.3-8.78,6.34-13.53,8.17-5.22,2.01-6.28-3.15-6.51-7.26-.49-8.72,6.76-6.93,11.9-8.23Z"/>
    <path class="cls-2" d="m515.47,969.66c5.89-1.06,8.02,2.85,8.14,7.32.25,9.3-8.78,6.34-13.53,8.17-5.22,2.01-6.28-3.15-6.51-7.26-.49-8.72,6.76-6.93,11.9-8.23Z"/>
    <path class="cls-2" d="m541.59,965.87c5.89-1.06,8.02,2.85,8.14,7.32.25,9.3-8.78,6.34-13.53,8.17-5.22,2.01-6.28-3.15-6.51-7.26-.49-8.72,6.76-6.93,11.9-8.23Z"/>
    <path class="cls-2" d="m569.88,964.04c5.99.07,7.34,4.31,6.62,8.72-1.5,9.19-9.81,4.57-14.83,5.47-5.51.99-5.57-4.28-5.03-8.36,1.16-8.66,7.94-5.53,13.24-5.84Z"/>
    <path class="cls-2" d="m597.94,964.2c5.98.34,7.14,4.64,6.22,9.01-1.92,9.11-10.01,4.12-15.06,4.8-5.55.74-5.37-4.52-4.64-8.57,1.55-8.6,8.18-5.17,13.49-5.24Z"/>
    <path class="cls-2" d="m626.02,966.82c5.97.42,7.08,4.73,6.1,9.09-2.03,9.08-10.06,3.99-15.12,4.6-5.55.67-5.31-4.59-4.53-8.63,1.66-8.58,8.25-5.06,13.56-5.06Z"/>
    <path class="cls-2" d="m652.98,970.75c5.96.63,6.91,4.98,5.78,9.3-2.35,9.01-10.19,3.64-15.27,4.07-5.57.47-5.15-4.78-4.23-8.79,1.96-8.51,8.42-4.77,13.72-4.58Z"/>
    <path class="cls-2" d="m682.59,980.79c5.29,2.81,4.54,7.2,1.87,10.79-5.55,7.47-10.82-.44-15.69-1.94-5.35-1.65-2.99-6.36-.63-9.73,5-7.16,9.59-1.27,14.44.89Z"/>
    <path class="cls-2" d="m708.25,993.45c5.19,2.98,4.3,7.34,1.52,10.84-5.79,7.28-10.79-.8-15.61-2.46-5.29-1.82-2.78-6.45-.31-9.75,5.24-6.99,9.63-.95,14.41,1.36Z"/>
    <path class="cls-2" d="m733.36,1005.21c5.15,3.05,4.2,7.4,1.37,10.86-5.89,7.2-10.78-.95-15.58-2.67-5.26-1.9-2.69-6.49-.18-9.75,5.33-6.92,9.64-.82,14.39,1.56Z"/>
    <path class="cls-2" d="m757.7,1016.73c5.31,2.77,4.59,7.17,1.95,10.78-5.5,7.51-10.82-.37-15.7-1.84-5.36-1.61-3.03-6.34-.7-9.73,4.95-7.19,9.58-1.33,14.45.79Z"/>
    <path class="cls-2" d="m783.79,1028.38c5.49,2.4,5.07,6.83,2.69,10.61-4.97,7.87-10.82.38-15.79-.75-5.46-1.24-3.46-6.11-1.37-9.66,4.44-7.52,9.47-1.99,14.47-.21Z"/>
    <path class="cls-2" d="m809.63,1038.29c5.65,1.98,5.57,6.43,3.48,10.38-4.36,8.22-10.76,1.19-15.8.44-5.53-.82-3.91-5.83-2.09-9.52,3.87-7.83,9.29-2.7,14.41-1.3Z"/>
    <path class="cls-2" d="m835.33,1046.95c5.65,2,5.56,6.45,3.45,10.39-4.38,8.21-10.76,1.16-15.8.4-5.53-.84-3.9-5.84-2.06-9.53,3.89-7.82,9.3-2.68,14.41-1.26Z"/>
    <path class="cls-2" d="m860.66,1054.22c5.53,2.29,5.21,6.73,2.89,10.56-4.82,7.97-10.81.59-15.8-.44-5.48-1.13-3.58-6.04-1.55-9.63,4.3-7.6,9.43-2.18,14.46-.49Z"/>
    <path class="cls-2" d="m887.16,1061.6c5.59,2.16,5.37,6.61,3.15,10.49-4.62,8.08-10.79.85-15.81-.06-5.5-1-3.72-5.96-1.79-9.59,4.11-7.71,9.37-2.4,14.45-.84Z"/>
    <path class="cls-2" d="m912.61,1066.18c5.89,1.1,6.49,5.51,5.02,9.73-3.06,8.79-10.45,2.82-15.55,2.84-5.59.03-4.75-5.17-3.52-9.1,2.63-8.33,8.77-4.08,14.05-3.48Z"/>
    <path class="cls-2" d="m940.69,1073.34c5.88,1.15,6.44,5.57,4.93,9.78-3.14,8.76-10.48,2.72-15.57,2.69-5.59-.03-4.7-5.22-3.43-9.13,2.71-8.3,8.81-4,14.08-3.34Z"/>
    <path class="cls-2" d="m968.02,1076.76c5.97.44,7.06,4.75,6.07,9.11-2.06,9.08-10.07,3.96-15.14,4.56-5.56.65-5.3-4.61-4.51-8.65,1.68-8.57,8.26-5.04,13.57-5.02Z"/>
    <path class="cls-2" d="m996.06,1080.97c5.97.47,7.04,4.79,6.02,9.14-2.11,9.07-10.09,3.91-15.16,4.48-5.56.62-5.28-4.64-4.46-8.67,1.73-8.56,8.29-4.99,13.6-4.95Z"/>
    <path class="cls-2" d="m1024.58,1085.11c5.95.72,6.83,5.08,5.63,9.39-2.49,8.97-10.25,3.48-15.34,3.83-5.58.38-5.07-4.86-4.09-8.85,2.09-8.48,8.49-4.63,13.8-4.37Z"/>
    <path class="cls-2" d="m1052.28,1088.61c5.97.41,7.08,4.73,6.1,9.09-2.03,9.08-10.06,4-15.12,4.61-5.55.67-5.32-4.59-4.54-8.63,1.65-8.58,8.25-5.06,13.55-5.07Z"/>
    <path class="cls-2" d="m1079.93,1090.37c5.98.4,7.09,4.71,6.13,9.07-2,9.09-10.05,4.03-15.11,4.65-5.55.69-5.33-4.58-4.56-8.62,1.63-8.58,8.23-5.09,13.54-5.11Z"/>
    <path class="cls-2" d="m1106.28,1091.87c5.98-.34,7.62,3.8,7.2,8.25-.87,9.27-9.47,5.23-14.42,6.48-5.43,1.37-5.85-3.88-5.59-7.99.56-8.72,7.54-6.06,12.81-6.74Z"/>
    <path class="cls-2" d="m1133.58,1092c5.95-.67,7.82,3.37,7.65,7.84-.35,9.3-9.17,5.75-14.04,7.27-5.34,1.66-6.06-3.55-6.02-7.67.08-8.73,7.19-6.47,12.41-7.44Z"/>
    <path class="cls-2" d="m1159.98,1091.45c5.89-1.06,8.02,2.85,8.14,7.32.25,9.3-8.78,6.34-13.53,8.17-5.22,2.01-6.28-3.15-6.51-7.26-.49-8.72,6.76-6.93,11.9-8.23Z"/>
    <path class="cls-2" d="m1187.59,1091.45c5.89-1.06,8.02,2.85,8.14,7.32.25,9.3-8.78,6.34-13.53,8.17-5.22,2.01-6.28-3.15-6.51-7.26-.49-8.72,6.76-6.93,11.9-8.23Z"/>
    <path class="cls-2" d="m1215.94,1089.43c5.89-1.06,8.02,2.85,8.14,7.32.25,9.3-8.78,6.34-13.53,8.17-5.22,2.01-6.28-3.15-6.51-7.26-.49-8.72,6.76-6.93,11.9-8.23Z"/>
    <path class="cls-2" d="m1243.92,1085.85c5.89-1.06,8.02,2.85,8.14,7.32.25,9.3-8.78,6.34-13.53,8.17-5.22,2.01-6.28-3.15-6.51-7.26-.49-8.72,6.76-6.93,11.9-8.23Z"/>
    <path class="cls-2" d="m1271.9,1083.39c5.89-1.06,8.02,2.85,8.14,7.32.25,9.3-8.78,6.34-13.53,8.17-5.22,2.01-6.28-3.15-6.51-7.26-.49-8.72,6.76-6.93,11.9-8.23Z"/>
  </g>
</svg>