<?xml version="1.0" encoding="UTF-8"?>
<svg id="Layer_1" data-name="Layer 1" xmlns="http://www.w3.org/2000/svg" viewBox="0 0 131.48 14.42">
  <defs>
    <style>
      .cls-1 {
        fill: #bd4d9d;
      }
    </style>
  </defs>
  <path class="cls-1" d="m35.65,6.93c2.06-9.04,3.01-7.61,10.43-3.84,4.14,2.1,8.76,3.59,13.1,5.46,1.56.67,2.4.65,2.6-.91.04-.35.05-.73.25-1.03,1.05-1.54,1.29-4.48,3.98-3.88,2.88.64.05,2.77-.21,4.1-1.48,7.73-2.47,7.97-11.05,4.07-4.15-1.89-8.53-3.46-12.75-5.26-1.74-.74-2.68-.64-2.88,1.08-.05.46-.27.91-.46,1.35-1.59,3.88-2.57,4.08-6.43,1.45-2.43-1.65-4.71-3.47-7.56-4.68-1.86-.79-2.92-.71-3.03,1.32-.1,1.85-.48,3.71-.96,5.53-.69,2.58-2.3,3.51-5.54,1.99-4.48-2.1-7.83-5.18-11.27-8.14C2.4,4.29-2.03,3.24,1.09.8c3.07-2.4,4.11,1.29,5.86,2.35,3.12,1.87,5.32,4.6,8.64,6.36,2.06,1.09,2.88.66,2.85-1.22,0-.12,0-.23,0-.35.08-2.67-.5-5.84,3.02-7.19,3.77-1.44,6.38,1.34,9.16,2.88,1.65.91,3.11,2.04,5.02,3.31Z"/>
  <path class="cls-1" d="m99.84,6.93c2.06-9.04,3.01-7.61,10.43-3.84,4.14,2.1,8.76,3.59,13.1,5.46,1.56.67,2.4.65,2.6-.91.04-.35.05-.73.25-1.03,1.05-1.54,1.29-4.48,3.98-3.88,2.88.64.05,2.77-.21,4.1-1.48,7.73-2.47,7.97-11.05,4.07-4.15-1.89-8.53-3.46-12.75-5.26-1.74-.74-2.68-.64-2.88,1.08-.05.46-.27.91-.46,1.35-1.59,3.88-2.57,4.08-6.43,1.45-2.43-1.65-4.71-3.47-7.56-4.68-1.86-.79-2.92-.71-3.03,1.32-.1,1.85-.48,3.71-.96,5.53-.69,2.58-2.3,3.51-5.54,1.99-4.48-2.1-7.83-5.18-11.27-8.14-1.46-1.26-5.9-2.31-2.78-4.75,3.07-2.4,4.11,1.29,5.86,2.35,3.12,1.87,5.32,4.6,8.64,6.36,2.06,1.09,2.88.66,2.85-1.22,0-.12,0-.23,0-.35.08-2.67-.5-5.84,3.02-7.19,3.77-1.44,6.38,1.34,9.16,2.88,1.65.91,3.11,2.04,5.02,3.31Z"/>
</svg>