<?xml version="1.0" encoding="UTF-8"?>
<svg id="Layer_1" data-name="Layer 1" xmlns="http://www.w3.org/2000/svg" viewBox="0 0 137.82 150.95">
  <defs>
    <style>
      .cls-1 {
        fill: #80c679;
      }
    </style>
  </defs>
  <path class="cls-1" d="m67.46,70.24c-10.1,20.97-20.25,37.79-36.21,50.06-3.25,2.49-7.22,8.24-11.26,3.8-3.77-4.14,2.66-6.62,5.14-9.21,9.96-10.41,15.97-23.2,23.1-35.45,7.09-12.17,3.08-16.15-8.64-19.63-11.1-3.3-21.35-9.38-32.38-13C-1.42,43.99-.81,38.21,1.44,32.5c3.04-7.71,8-2.54,12.38-.72,12.15,5.05,24.42,9.82,36.54,14.92,8.25,3.47,12.21.62,13.65-7.88,1.52-8.99,3.5-17.9,5.6-26.78,1.64-6.93,5.78-13.73,13.22-11.68,7.98,2.2,2.22,8.91,1.43,14.02-7,45.01-7.91,41.99,34.36,44.75,2.51.16,5.09.03,7.56-.41,5.02-.9,11.14-2.97,11.6,4.75.37,6.18-2.11,12.07-9.73,13.32-11.28,1.85-22.27-.43-33.16-2.69-8.28-1.71-11.23.22-9.45,9.14,3.6,18.04,8.24,35.81,19.46,50.56,5.72,7.51,1.45,11.42-2.86,15.11-6.48,5.54-9.19-1.69-11.15-5.41-9.25-17.53-16.39-35.92-19.91-55.56-.86-4.8-1.89-9.57-3.52-17.71Z"/>
</svg>