<?xml version="1.0" encoding="UTF-8"?>
<svg id="Layer_1" data-name="Layer 1" xmlns="http://www.w3.org/2000/svg" viewBox="0 0 72.46 180.22">
  <defs>
    <style>
      .cls-1 {
        fill: #80c679;
      }
    </style>
  </defs>
  <path class="cls-1" d="m35.09,51.05c-1.68,16.17-4.08,32.99-4.93,49.85-.45,8.94-4.27,10.12-10.95,9.14-.71-.1-1.38-.51-2.08-.53-5.55-.16-12.43-3.72-16.21,1.69-3.55,5.08,4.05,7.52,5.91,11.72,7.21,16.31,13.52,32.88,16.9,50.65.58,3.05.23,7.34,5.27,6.56,3.89-.6,7.2-.74,8.49-6.54,5.04-22.61,16.17-41.95,31.88-58.46,1.52-1.6,3.77-2.63,2.87-5.4-1.01-3.08-3.57-3.32-6.17-3.11-5.37.43-10.75.84-16.1,1.49-6.46.78-8.97-1.42-8.31-8.76,2.35-26.31,4.76-52.54,15.04-77.34,1.87-4.51,3.2-9.26,4.72-13.92,1.18-3.62,1.22-6.98-3.18-7.81-3.24-.61-6.46-.51-7.87,3.85-4.97,15.41-10.02,30.79-15.29,46.92Zm-3.49,101.61c-4.38-10.99-8.04-20.14-11.66-29.3-.98-2.48-1.92-6.13,1.93-5.64,9.96,1.26,19.77-1.31,30.68-2.63-7.24,12.99-13.53,24.26-20.95,37.57Z"/>
</svg>