<?xml version="1.0" encoding="UTF-8"?>
<svg id="Layer_1" data-name="Layer 1" xmlns="http://www.w3.org/2000/svg" viewBox="0 0 109.97 54.19">
  <defs>
    <style>
      .cls-1 {
        fill: #7bb787;
      }

      .cls-2 {
        fill: #165244;
      }
    </style>
  </defs>
  <g>
    <circle class="cls-1" cx="40.21" cy="4.3" r="3.9"/>
    <circle class="cls-1" cx="82.41" cy="8.1" r="3.3"/>
    <circle class="cls-1" cx="61.41" cy="3.9" r="3.9"/>
    <path class="cls-1" d="m91.51,15.34v2.26c-.25-.1-.51-.17-.78-.2-3.42-.49-6.91,4.17-7.8,10.41-.06.4-.1.8-.13,1.19h-3.7c-.18-7.32-3.56-13.15-7.69-13.15s-7.51,5.83-7.69,13.15h-5.12c-.61-8.62-3.82-15.2-7.69-15.2s-7.08,6.58-7.69,15.2h-6.01c-.26-7.19-3.6-12.88-7.68-12.88s-7.43,5.69-7.68,12.88h-3.27c-.02-.12-.03-.25-.05-.38-.86-6-4.32-10.46-7.73-9.98-.45.06-.87.21-1.27.43v-2.98c8.81-4.39,24.24-7.29,41.8-7.29,16.54,0,31.19,2.58,40.2,6.54Z"/>
    <circle class="cls-1" cx="18.61" cy="8.1" r="3.3"/>
  </g>
  <path class="cls-2" d="m5.85,54.19c-.83,0-1.56-.1-2.18-.31-.62-.2-1.15-.45-1.58-.74-.43-.29-.78-.58-1.04-.86-.26-.28-.44-.5-.53-.64-.25-.35-.41-.65-.48-.91-.07-.26-.04-.52.09-.79.13-.27.37-.56.72-.87.33-.28.64-.44.93-.46.29-.02.58.05.86.22.28.17.56.42.82.73.38.46.75.77,1.12.96.37.18.76.27,1.17.27.52,0,.96-.06,1.32-.19.36-.12.64-.33.83-.6s.28-.62.28-1.05c0-.35-.13-.62-.39-.84-.26-.21-.61-.39-1.04-.54-.43-.15-.91-.3-1.44-.45s-1.06-.33-1.59-.55c-.35-.13-.69-.28-1.03-.46s-.65-.39-.94-.64c-.29-.24-.54-.53-.75-.86-.21-.33-.38-.71-.51-1.13-.13-.42-.19-.91-.19-1.46,0-.93.23-1.75.7-2.46.46-.71,1.1-1.29,1.91-1.71.81-.42,1.73-.64,2.77-.64.72,0,1.35.06,1.87.19.53.13.97.28,1.33.45.36.17.65.34.86.51.21.17.36.29.44.39.44.41.68.76.73,1.05.05.29-.12.7-.5,1.21-.41.55-.8.86-1.18.92-.38.06-.81-.07-1.3-.4-.19-.17-.38-.33-.57-.47s-.41-.26-.67-.34-.61-.13-1.05-.13c-.24,0-.46.04-.68.11-.22.07-.41.17-.57.29-.16.13-.28.28-.38.46s-.14.38-.14.6c0,.38.12.68.37.9.24.22.57.39.97.52.4.13.85.25,1.34.37.5.12,1,.26,1.52.41.47.16.93.35,1.37.58.44.23.83.51,1.18.86s.62.78.84,1.3c.21.52.32,1.16.32,1.91,0,.94-.18,1.75-.54,2.43-.36.68-.84,1.23-1.44,1.65-.6.42-1.24.74-1.93.93-.69.2-1.37.29-2.03.29Z"/>
  <path class="cls-2" d="m15.39,54.17c-1.15,0-2.16-.22-3.04-.67-.88-.45-1.62-1.05-2.22-1.79s-1.05-1.59-1.34-2.52c-.3-.93-.45-1.89-.45-2.86v-7.05c0-.31.03-.61.08-.88.05-.27.21-.5.46-.67s.67-.26,1.25-.26,1.02.09,1.27.26.4.4.46.67c.05.28.08.58.08.91v7.03c0,.69.11,1.36.34,2,.23.64.6,1.18,1.12,1.6.52.42,1.2.64,2.05.64.72,0,1.34-.18,1.86-.53.52-.35.92-.85,1.2-1.49.28-.64.42-1.39.42-2.25v-7.14c0-.3.03-.57.09-.83.06-.25.22-.46.47-.62s.66-.25,1.23-.25c.6,0,1.02.09,1.26.27.24.18.39.41.45.68.06.28.08.57.08.88v7.07c0,.99-.15,1.95-.46,2.88-.31.93-.77,1.76-1.38,2.5-.61.74-1.36,1.33-2.24,1.77-.88.44-1.9.66-3.06.66Z"/>
  <path class="cls-2" d="m21.47,53.95c-.58,0-.99-.09-1.24-.26s-.4-.4-.46-.68c-.06-.28-.09-.57-.09-.87v-12.87c0-.3.03-.58.09-.86.06-.27.22-.5.47-.67s.67-.26,1.25-.26h4.88c.66,0,1.33.12,2,.35.68.24,1.3.6,1.86,1.08.57.49,1.02,1.09,1.37,1.82.35.72.52,1.58.52,2.57,0,.66-.1,1.3-.29,1.92-.2.62-.49,1.19-.88,1.7-.39.51-.88.95-1.46,1.32-.58.37-1.25.64-2,.81h-4.2v3.11c0,.3-.03.58-.09.86-.06.27-.22.5-.47.67s-.67.26-1.25.26Zm1.81-8.46h3.28c.2,0,.42-.04.66-.13.24-.09.45-.22.65-.39.2-.17.36-.4.48-.68.13-.28.19-.62.19-1.01,0-.46-.09-.85-.28-1.18s-.45-.58-.78-.77c-.33-.18-.72-.27-1.16-.27h-3.04v4.43Zm8.13,7.99c-.58.42-1.04.59-1.39.51-.35-.09-.71-.4-1.08-.93l-4.15-5.94,4.03-.52,3.04,4.36c.27.38.44.7.51.97.07.27.03.52-.12.75-.15.24-.43.5-.84.8Z"/>
  <path class="cls-2" d="m39.72,53.95c-.57,0-.98-.08-1.24-.25s-.42-.39-.47-.67c-.06-.28-.08-.57-.08-.87v-12.9c0-.3.03-.58.08-.86.06-.27.21-.5.46-.67.25-.17.67-.26,1.25-.26s1.02.09,1.26.26c.24.17.39.4.45.67.05.28.08.57.08.88v11.55h6.46c.27,0,.52.02.75.07.24.05.43.18.58.4.15.22.22.58.22,1.08s-.08.84-.24,1.07c-.16.23-.35.37-.58.41-.23.05-.48.07-.74.07h-8.25Z"/>
  <path class="cls-2" d="m45.92,53.95c-.57,0-.97-.08-1.23-.25-.25-.17-.4-.39-.46-.67-.06-.28-.08-.57-.08-.87v-12.9c0-.67.13-1.14.4-1.4.27-.26.75-.39,1.44-.39h8.91c.31,0,.6.03.87.08.27.06.49.21.66.46.17.25.26.68.26,1.27s-.09.97-.26,1.23c-.17.25-.4.4-.67.46-.28.06-.57.08-.88.08h-7.14v3.04h4.86c.31,0,.59.02.84.07.24.05.44.18.58.4s.21.59.21,1.11c0,.49-.07.84-.21,1.06-.14.22-.34.35-.6.4s-.55.07-.86.07h-4.81v3.16h7.17c.31,0,.6.03.87.09.27.06.49.22.66.46.17.24.26.66.26,1.26,0,.57-.09.97-.26,1.23-.17.25-.4.4-.67.46-.28.05-.57.08-.88.08h-8.96Z"/>
  <path class="cls-2" d="m63.89,53.95c-.58,0-1-.09-1.25-.26s-.4-.4-.46-.68c-.06-.28-.08-.57-.08-.87v-12.87c0-.3.03-.58.09-.86.06-.27.22-.5.47-.67.25-.17.67-.26,1.25-.26h4.83c.64,0,1.3.12,1.98.35.68.24,1.3.6,1.87,1.1s1.04,1.1,1.39,1.83.53,1.57.53,2.55-.18,1.82-.53,2.53c-.35.72-.82,1.32-1.39,1.8s-1.2.85-1.87,1.08c-.68.24-1.34.35-2,.35h-3.02v3.09c0,.3-.03.58-.09.86-.06.27-.22.5-.47.67-.25.17-.67.26-1.25.26Zm1.82-8.46h3.04c.35,0,.69-.07,1.03-.22.34-.15.62-.39.85-.72.23-.33.34-.75.34-1.27,0-.44-.1-.83-.29-1.16s-.46-.59-.79-.78c-.33-.19-.72-.28-1.16-.28h-3.02v4.43Z"/>
  <path class="cls-2" d="m79.74,54.19c-1.13,0-2.2-.22-3.19-.65-1-.43-1.87-1.03-2.63-1.79-.75-.76-1.34-1.65-1.77-2.65-.42-1-.64-2.09-.64-3.25s.21-2.29.62-3.32c.42-1.04.99-1.95,1.72-2.72.73-.78,1.58-1.39,2.56-1.83.97-.44,2.01-.66,3.11-.66s2.22.22,3.22.65c1,.43,1.87,1.03,2.62,1.8.75.77,1.33,1.67,1.76,2.69s.64,2.13.64,3.32-.21,2.23-.62,3.25c-.42,1.02-.99,1.92-1.73,2.7-.74.78-1.59,1.38-2.56,1.82-.97.43-2,.65-3.1.65Zm-.12-3.58c.63,0,1.22-.12,1.77-.38.55-.25,1.03-.59,1.45-1.03.42-.43.74-.94.97-1.53.23-.59.34-1.22.34-1.9s-.12-1.31-.35-1.9c-.24-.59-.56-1.11-.98-1.56-.42-.45-.9-.79-1.44-1.04-.54-.24-1.13-.37-1.76-.37s-1.19.12-1.73.37c-.54.24-1.02.59-1.44,1.04-.42.45-.75.97-.99,1.56-.24.59-.37,1.22-.37,1.9s.12,1.28.37,1.87c.24.59.57,1.1.99,1.54.42.44.9.79,1.44,1.04.54.25,1.12.38,1.73.38Z"/>
  <path class="cls-2" d="m86.86,53.95c-.57,0-.97-.09-1.21-.26-.24-.17-.4-.4-.46-.67-.06-.28-.09-.57-.09-.88v-12.94c0-.28.03-.55.09-.81s.22-.47.48-.64.68-.25,1.26-.25.96.07,1.18.2c.22.13.42.32.59.55l6.88,9.45v-8.51c0-.28.04-.55.11-.81s.23-.47.48-.64.66-.25,1.23-.25.99.09,1.24.26c.24.17.39.4.45.67.05.28.08.57.08.88v12.85c0,.3-.03.58-.09.86-.06.27-.22.5-.48.67s-.68.26-1.26.26c-.44,0-.78-.04-1.01-.12-.24-.08-.44-.23-.61-.45l-7.02-9.52v8.3c0,.3-.03.58-.09.86-.06.27-.22.5-.47.67-.25.17-.67.26-1.25.26Z"/>
  <path class="cls-2" d="m108.46,37.45c.27,0,.51.02.74.07.23.05.41.18.55.4.14.22.21.58.21,1.08s-.07.84-.21,1.06c-.14.22-.33.35-.57.4-.24.05-.49.07-.75.07h-3.8v11.67c0,.3-.03.58-.08.85s-.2.48-.45.65-.66.25-1.26.25c-.55,0-.95-.08-1.2-.25-.25-.17-.4-.38-.46-.66-.06-.27-.08-.56-.08-.86v-11.65h-3.82c-.25,0-.5-.03-.73-.08-.24-.05-.43-.19-.58-.4-.15-.21-.22-.57-.22-1.07s.07-.84.22-1.06c.15-.22.34-.35.58-.4.24-.05.48-.07.73-.07h11.17Z"/>
</svg>