<?xml version="1.0" encoding="UTF-8"?>
<svg id="Layer_1" data-name="Layer 1" xmlns="http://www.w3.org/2000/svg" viewBox="0 0 30.3 22.04">
  <defs>
    <style>
      .cls-1 {
        fill: #333;
      }
    </style>
  </defs>
  <path class="cls-1" d="m.02,7.38c3.66,2.36,6.92,4.23,9.92,6.44,3.53,2.59,6.76,2.71,10.33.08,3.02-2.23,6.29-4.11,9.99-6.49,0,4.34.1,8.26-.04,12.18-.06,1.79-1.46,2.46-3.14,2.46-7.9,0-15.8,0-23.69,0-2.49,0-3.43-1.33-3.38-3.7.06-3.43.02-6.86.02-10.97Z"/>
  <path class="cls-1" d="m15.51.02c3.66,0,7.32.02,10.98,0,1.44-.01,2.81.13,3.5,1.6.77,1.63-.07,3.01-1.21,3.96-3.79,3.15-8.04,5.63-12.3,8.07-1.12.65-2.45.3-3.59-.44-3.45-2.24-6.95-4.4-10.34-6.74C1.05,5.42-.45,4.04.23,1.92.96-.37,3.07.03,4.87.02c3.55-.01,7.09,0,10.64,0Z"/>
</svg>