<?xml version="1.0" encoding="UTF-8"?>
<svg id="Layer_1" data-name="Layer 1" xmlns="http://www.w3.org/2000/svg" viewBox="0 0 166.8 154.53">
  <defs>
    <style>
      .cls-1 {
        fill: #bd4e9d;
        stroke: #bd4e9d;
        stroke-miterlimit: 10;
        stroke-width: 3px;
      }
    </style>
  </defs>
  <path class="cls-1" d="m112.67,136.94c-9.98-45.45-5.95-91.11-.41-136.76.14,45.59.27,91.18.41,136.76Z"/>
  <path class="cls-1" d="m95.5,152.69c-9.7-40.28-19.39-80.57-29.09-120.85,1.11-.27,2.21-.53,3.32-.8,9.69,40.26,19.38,80.51,29.07,120.77-1.1.29-2.2.59-3.3.88Z"/>
  <path class="cls-1" d="m2.03,94.82c28.57,16.65,57.14,33.3,85.71,49.95-.54.93-1.08,1.87-1.62,2.8-27.79-18.01-55.58-36.02-83.37-54.03-.24.43-.48.86-.72,1.28Z"/>
  <path class="cls-1" d="m165.46,48.85c-12.61,25.9-25.21,51.8-37.82,77.7,4.29-29.87,20.63-53.98,37.82-77.7Z"/>
  <path class="cls-1" d="m141.08,25.22c-3.93,21.79-7.86,43.57-11.79,65.36-1.51-.29-3.02-.58-4.54-.86,4.23-21.94,8.45-43.87,12.68-65.81,1.21.44,2.43.88,3.64,1.32Z"/>
</svg>