<?xml version="1.0" encoding="UTF-8"?>
<svg id="Layer_1" data-name="Layer 1" xmlns="http://www.w3.org/2000/svg" viewBox="0 0 206.17 98.9">
  <defs>
    <style>
      .cls-1 {
        fill: #bd4e9d;
        stroke: #bd4e9d;
        stroke-miterlimit: 10;
        stroke-width: 3px;
      }
    </style>
  </defs>
  <path class="cls-1" d="m134,39.07c-3.9-2.49-8.19-6.69-13.27-8.14-8.06-2.3-16.64-2.77-25-4.01.57,6.83,1.14,13.66,1.9,22.8-6.55-3.59-12.2-6.76-17.92-9.79-3.9-2.07-7.76-4.31-11.88-5.83-18.42-6.77-40.13-16.91-54.08.83-6.58,8.37,1.82,28.52,3.19,41.06C7.09,68.02-2.4,54.34,3.14,37.22c5.62-17.38,22.57-19.2,38.03-16.69,14.11,2.29,27.72,7.7,42.6,12.04,7.12-19.9,22.88-14.67,37.75-9.82,15.98-30.67,48.51-28.1,75.75,7.44-12.14-7.61-21.04-15.86-31.47-18.93-9.25-2.72-21.23-2-29.87,1.92-3.51,1.59-1.39,15.63-1.92,25.89Z"/>
  <path class="cls-1" d="m72.2,59.78c3.9,2.48,8.21,6.67,13.3,8.11,8.06,2.28,16.65,2.72,25.01,3.94-.59-6.83-1.18-13.65-1.97-22.8,6.56,3.57,12.22,6.72,17.95,9.74,3.91,2.05,7.78,4.29,11.9,5.8,18.44,6.72,40.18,16.8,54.08-.98,6.56-8.39-1.9-28.52-3.3-41.05,9.87,7.95,19.39,21.6,13.9,38.73-5.57,17.39-22.51,19.26-37.98,16.79-14.12-2.25-27.74-7.62-42.63-11.92-7.07,19.92-22.84,14.74-37.72,9.92-15.9,30.72-48.43,28.23-75.77-7.23,12.16,7.57,21.09,15.8,31.52,18.84,9.25,2.7,21.23,1.94,29.86-2,3.51-1.6,1.34-15.64,1.85-25.89Z"/>
</svg>