<?xml version="1.0" encoding="UTF-8"?>
<svg id="Layer_1" data-name="Layer 1" xmlns="http://www.w3.org/2000/svg" viewBox="0 0 109.97 2.35">
  <defs>
    <style>
      .cls-1 {
        fill: #bd4d9c;
      }
    </style>
  </defs>
  <path class="cls-1" d="m9.94,2.33c-1.86-.12-5.17-.3-8.49-.18C.65,2.18.02,2.1,0,1.1-.02-.05.73.01,1.57,0c5.92-.06,11.82.68,17.74.33.71-.04,1.42-.12,2.12-.13.55,0,1.42-.55,1.47.57.04.89-.21,1.59-1.39,1.58-3.37-.05-6.75-.02-11.56-.02Z"/>
  <path class="cls-1" d="m32.06,2.33c-1.86-.12-5.17-.3-8.49-.18-.8.03-1.43-.05-1.45-1.05C22.09-.05,22.84.01,23.68,0c5.92-.06,11.82.68,17.74.33.71-.04,1.42-.12,2.12-.13.55,0,1.42-.55,1.47.57.04.89-.21,1.59-1.39,1.58-3.37-.05-6.75-.02-11.56-.02Z"/>
  <path class="cls-1" d="m53.47,2.33c-1.86-.12-5.17-.3-8.49-.18-.8.03-1.43-.05-1.45-1.05-.02-1.15.73-1.09,1.56-1.1,5.92-.06,11.82.68,17.74.33.71-.04,1.42-.12,2.12-.13.55,0,1.42-.55,1.47.57.04.89-.21,1.59-1.39,1.58-3.37-.05-6.75-.02-11.56-.02Z"/>
  <path class="cls-1" d="m75.24,2.33c-1.86-.12-5.17-.3-8.49-.18-.8.03-1.43-.05-1.45-1.05-.02-1.15.73-1.09,1.56-1.1,5.92-.06,11.82.68,17.74.33.71-.04,1.42-.12,2.12-.13.55,0,1.42-.55,1.47.57.04.89-.21,1.59-1.39,1.58-3.37-.05-6.75-.02-11.56-.02Z"/>
  <path class="cls-1" d="m97.01,2.33c-1.86-.12-5.17-.3-8.49-.18-.8.03-1.43-.05-1.45-1.05-.02-1.15.73-1.09,1.56-1.1,5.92-.06,11.82.68,17.74.33.71-.04,1.42-.12,2.12-.13.55,0,1.42-.55,1.47.57.04.89-.21,1.59-1.39,1.58-3.37-.05-6.75-.02-11.56-.02Z"/>
</svg>