<?xml version="1.0" encoding="UTF-8"?>
<svg id="Layer_1" data-name="Layer 1" xmlns="http://www.w3.org/2000/svg" viewBox="0 0 204.07 145.81">
  <defs>
    <style>
      .cls-1 {
        fill: #bd4e9d;
      }
    </style>
  </defs>
  <path class="cls-1" d="m105.39,100.33c16.29,2.76,29.49.31,42.62.75,3.96.13,8.35-1.31,11.4,2.84,1.91,2.6,4.62,5.24,3.83,8.49-.98,4.03-4.96,3.09-8.07,3.15-36.89.72-73,6.25-108.45,16.62-10.65,3.12-20.81,7.24-30.71,11.93-6.95,3.3-11.38,1.74-14.76-4.53-4.12-7.64,3.12-7.73,6.88-10.31,22.3-15.29,45.58-29.51,58.92-54.52,3.26-6.1,6.34-12.24,7.32-19.17.59-4.13.63-9.34,6.69-7.78,5.03,1.29,6.93,5.49,5.46,10.9-4.4,16.18-11.44,30.89-23.31,43-3.37,3.43-6.71,6.89-11.83,12.15,4.48-.27,6.63.27,7.8-.56,40.03-28.34,81.59-54.72,116.39-89.81,5.13-5.17,9.15-11.44,13.82-17.09,3-3.63,5.28-9.75,11.68-4.14,5.22,4.58,2.73,8.69-.32,13.2-14.08,20.85-33.43,36.38-52.62,52-13.11,10.68-26.79,20.65-42.71,32.85Z"/>
</svg>