<?xml version="1.0" encoding="UTF-8"?>
<svg id="Layer_1" data-name="Layer 1" xmlns="http://www.w3.org/2000/svg" viewBox="0 0 36.91 47.25">
  <defs>
    <style>
      .cls-1 {
        fill: #bd4d9c;
      }
    </style>
  </defs>
  <path class="cls-1" d="m14.98,11.33c2.89,4.29,6.09,8.65,8.84,13.27,1.46,2.45,2.75,2.17,4.55.81.19-.14.33-.37.53-.49,1.6-.94,3.08-3.06,4.98-2.15,1.79.86-.07,2.78.02,4.26.32,5.77.94,11.47,2.59,17.03.28.95,1.02,2.11-.56,2.71-1.22.46-2.21.96-3.45-.47-4.83-5.56-10.95-9.22-17.99-11.34-.68-.2-1.49-.13-1.64-1.06-.16-1.03.55-1.51,1.34-1.88,1.63-.75,3.26-1.5,4.92-2.19,2-.83,2.41-1.85,1.12-3.82-4.6-7.04-9.19-14.06-15.88-19.39-1.22-.97-2.31-2.1-3.45-3.17C.02,2.64-.49,1.7.68.76,1.53.06,2.49-.43,3.55.57c3.74,3.54,7.5,7.07,11.43,10.77Zm16.11,28.11c-.35-3.81-.64-6.99-.95-10.16-.08-.86-.35-2.04-1.4-1.28-2.72,1.97-5.97,2.83-9.35,4.23,4.04,2.49,7.55,4.66,11.7,7.21Z"/>
</svg>