<?xml version="1.0" encoding="UTF-8"?>
<svg id="Layer_1" data-name="Layer 1" xmlns="http://www.w3.org/2000/svg" viewBox="0 0 35.37 85.22">
  <defs>
    <style>
      .cls-1 {
        fill: #e8595a;
      }
    </style>
  </defs>
  <path class="cls-1" d="m23.71,44.83c2.87-5.26,3.59-10.07,5.29-14.51.51-1.34.54-3.01,2.32-3.57,1.12-.35,2.34-.97,3.36-.31,1.27.81.47,2.07.13,3.14-4.1,12.72-6.47,25.75-7.1,39.12-.19,4.02.02,7.98.47,11.93.31,2.77-.75,4.11-3.29,4.52-3.1.51-2.28-1.98-2.72-3.57-2.61-9.44-4.73-19.1-11.73-26.62-1.71-1.84-3.45-3.61-5.71-4.77-1.35-.69-3.12-1.32-1.88-3.21,1.04-1.57,2.7-1.73,4.38-.58,5.02,3.42,9.23,7.56,11.98,13.06.78,1.56,1.57,3.11,2.77,5.49.44-1.57.88-2.24.73-2.74C17.72,45.15,13.58,27.79,5.66,11.73c-1.17-2.37-2.84-4.49-4.23-6.75-.89-1.46-2.72-2.96-.04-4.49,2.19-1.25,3.3.09,4.49,1.67,5.48,7.29,8.52,15.75,11.61,24.16,2.11,5.75,3.91,11.62,6.22,18.51Z"/>
</svg>