<?xml version="1.0" encoding="UTF-8"?>
<svg id="Layer_1" data-name="Layer 1" xmlns="http://www.w3.org/2000/svg" viewBox="0 0 754.96 236.85">
  <defs>
    <style>
      .cls-1 {
        fill: #e6c959;
      }

      .cls-2 {
        fill: #e95959;
      }
    </style>
  </defs>
  <path class="cls-1" d="m455.62,169.01c16.31,4.75,15.9,4.47,23.91-7.5,3.7-5.53,5.56-16.04,13.12-14.32,4.27.97.86,11.63.64,17.86-.48,13.37-.77,13.45,12.27,16.33,5.42,1.2,10.93,2.04,16.43,2.85,4.45.66,4.8,2.21,2.59,6.09-3.54,6.22-9.56,6.25-15.2,6.97-15.45,1.97-15.48,1.83-13.69,17.45.28,2.44,1.17,4.97.8,7.3-.55,3.42-2.73,7.15-5.68,7.94-3,.81-3.15-3.68-4.58-5.86-3.39-5.16-7.13-10.09-10.43-15.3-2.48-3.92-5.22-4.38-9.34-2.51-6.76,3.05-13.37,6.3-19.36,10.7-1.64,1.21-2.85,3.68-5.42,1.84-2.46-1.77-1.71-4.01-1.29-6.61,1.19-7.32,7.74-10.17,11.93-14.85,5.54-6.18,7.44-10.95-1.42-15.6-2.95-1.55-5.3-4.21-7.95-6.34-2.13-1.72-5.1-3.22-2.9-6.61,1.63-2.52,4.22-3.63,7.27-2.66,3.53,1.12,7.02,2.39,8.31,2.83Zm22.43,16.35c-2.71.12-6.8-3.29-7.89.42-1,3.39,2.85,6.56,6.33,7.65,3.2,1.01,7.52.53,8.18-3.35.7-4.13-4.03-3.43-6.62-4.72Zm7.89-23.43c-3.79,2.56-4.42,6.13-6.32,8.85-1.14,1.63-1.57,3.39.93,4.35,2.24.86,4.44.98,5.05-1.9.74-3.55,1.53-7.17.34-11.3Z"/>
  <path class="cls-2" d="m8.94,163.65c4.5-.77,6.25,1.5,6.49,4.15.49,5.52-6.54,3.98-10.14,5.18-3.95,1.32-4.92-1.72-5.23-4.15-.66-5.17,4.97-4.28,8.89-5.18Z"/>
  <path class="cls-2" d="m30.37,159.99c4.39-1.07,6.4,1.07,6.93,3.7,1.11,5.47-6.07,4.4-9.52,5.85-3.79,1.58-5.1-1.38-5.68-3.78-1.24-5.1,4.47-4.6,8.27-5.76Z"/>
  <path class="cls-2" d="m51.35,155.86c4.4-1.04,6.39,1.11,6.89,3.74,1.05,5.47-6.12,4.36-9.59,5.78-3.8,1.56-5.08-1.41-5.64-3.82-1.18-5.11,4.52-4.57,8.33-5.7Z"/>
  <path class="cls-2" d="m72.43,152.2c4.4-1.06,6.4,1.09,6.92,3.71,1.09,5.47-6.09,4.39-9.54,5.82-3.79,1.57-5.09-1.39-5.67-3.8-1.22-5.11,4.49-4.59,8.29-5.74Z"/>
  <path class="cls-2" d="m93.16,148.44c4.39-1.08,6.4,1.06,6.95,3.68,1.13,5.46-6.05,4.42-9.5,5.87-3.78,1.59-5.11-1.37-5.7-3.77-1.26-5.1,4.45-4.61,8.25-5.78Z"/>
  <path class="cls-2" d="m113.71,144.51c4.48-.82,6.28,1.44,6.55,4.09.58,5.51-6.48,4.04-10.06,5.28-3.93,1.36-4.95-1.67-5.3-4.1-.74-5.16,4.9-4.33,8.8-5.26Z"/>
  <path class="cls-2" d="m134.76,141.04c4.53-.63,6.17,1.7,6.26,4.35.2,5.53-6.75,3.77-10.41,4.85-4.02,1.19-4.83-1.87-5.01-4.32-.38-5.18,5.2-4.12,9.16-4.89Z"/>
  <path class="cls-2" d="m154.24,138.19c4.53-.63,6.17,1.7,6.26,4.35.2,5.53-6.75,3.77-10.41,4.85-4.02,1.19-4.83-1.87-5.01-4.32-.38-5.18,5.2-4.12,9.16-4.89Z"/>
  <path class="cls-2" d="m174.66,134.87c4.53-.63,6.17,1.7,6.26,4.35.2,5.53-6.75,3.77-10.41,4.85-4.02,1.19-4.83-1.87-5.01-4.32-.38-5.18,5.2-4.12,9.16-4.89Z"/>
  <path class="cls-2" d="m194.75,132.62c4.53-.63,6.17,1.7,6.26,4.35.2,5.53-6.75,3.77-10.41,4.85-4.02,1.19-4.83-1.87-5.01-4.32-.38-5.18,5.2-4.12,9.16-4.89Z"/>
  <path class="cls-2" d="m216.52,131.53c4.61.04,5.65,2.56,5.09,5.19-1.16,5.46-7.55,2.72-11.41,3.25-4.24.59-4.29-2.54-3.87-4.97.89-5.15,6.11-3.29,10.18-3.47Z"/>
  <path class="cls-2" d="m238.1,131.62c4.6.2,5.49,2.76,4.78,5.36-1.47,5.41-7.7,2.45-11.59,2.85-4.27.44-4.13-2.69-3.57-5.1,1.19-5.11,6.29-3.07,10.38-3.11Z"/>
  <path class="cls-2" d="m259.7,133.18c4.6.25,5.44,2.81,4.69,5.41-1.56,5.4-7.74,2.37-11.63,2.74-4.27.4-4.09-2.73-3.49-5.13,1.28-5.1,6.34-3.01,10.43-3.01Z"/>
  <path class="cls-2" d="m280.44,135.52c4.58.37,5.31,2.96,4.44,5.53-1.81,5.35-7.84,2.16-11.75,2.42-4.29.28-3.96-2.84-3.25-5.22,1.51-5.06,6.48-2.83,10.56-2.72Z"/>
  <path class="cls-2" d="m303.22,141.49c4.07,1.67,3.49,4.28,1.44,6.41-4.27,4.44-8.32-.26-12.07-1.16-4.11-.98-2.3-3.78-.48-5.78,3.85-4.26,7.38-.75,11.11.53Z"/>
  <path class="cls-2" d="m322.96,149.01c3.99,1.77,3.31,4.37,1.17,6.45-4.46,4.33-8.3-.47-12.01-1.46-4.07-1.08-2.14-3.84-.24-5.79,4.03-4.16,7.41-.57,11.08.81Z"/>
  <path class="cls-2" d="m342.28,156c3.96,1.82,3.23,4.4,1.05,6.46-4.53,4.28-8.29-.56-11.98-1.59-4.05-1.13-2.07-3.86-.14-5.8,4.1-4.11,7.42-.49,11.07.93Z"/>
  <path class="cls-2" d="m360.99,162.85c4.08,1.65,3.53,4.26,1.5,6.4-4.23,4.46-8.32-.22-12.08-1.09-4.12-.96-2.33-3.77-.54-5.78,3.81-4.28,7.37-.79,11.11.47Z"/>
  <path class="cls-2" d="m381.07,169.78c4.22,1.43,3.9,4.06,2.07,6.31-3.82,4.68-8.32.23-12.15-.44-4.2-.74-2.66-3.63-1.05-5.74,3.42-4.47,7.28-1.19,11.13-.13Z"/>
  <path class="cls-2" d="m400.94,175.67c4.35,1.18,4.29,3.82,2.68,6.17-3.36,4.89-8.28.71-12.15.26-4.26-.49-3.01-3.47-1.61-5.66,2.97-4.66,7.15-1.61,11.09-.77Z"/>
  <path class="cls-2" d="m420.71,180.81c4.34,1.19,4.27,3.83,2.65,6.18-3.37,4.88-8.28.69-12.15.24-4.26-.5-3-3.47-1.59-5.67,2.99-4.65,7.15-1.59,11.09-.75Z"/>
  <path class="cls-2" d="m439.19,185.17c4.34,1.19,4.27,3.83,2.65,6.18-3.37,4.88-8.28.69-12.15.24-4.26-.5-3-3.47-1.59-5.67,2.99-4.65,7.15-1.59,11.09-.75Z"/>
  <path class="cls-2" d="m536.46,194.83c4.59.26,5.43,2.82,4.67,5.42-1.59,5.4-7.75,2.36-11.64,2.71-4.27.39-4.08-2.74-3.47-5.14,1.3-5.09,6.36-2.99,10.44-2.98Z"/>
  <path class="cls-2" d="m558.04,197.33c4.59.28,5.41,2.85,4.63,5.44-1.62,5.39-7.76,2.32-11.66,2.66-4.28.37-4.06-2.76-3.43-5.15,1.33-5.09,6.38-2.97,10.46-2.94Z"/>
  <path class="cls-2" d="m579.97,199.8c4.57.43,5.25,3.02,4.33,5.58-1.92,5.33-7.89,2.07-11.8,2.28-4.29.23-3.9-2.89-3.14-5.26,1.61-5.04,6.53-2.75,10.61-2.6Z"/>
  <path class="cls-2" d="m601.28,201.87c4.6.25,5.45,2.81,4.7,5.4-1.56,5.4-7.74,2.38-11.63,2.74-4.27.4-4.09-2.73-3.49-5.13,1.27-5.1,6.34-3.01,10.43-3.01Z"/>
  <path class="cls-2" d="m622.55,202.92c4.6.24,5.46,2.8,4.71,5.39-1.54,5.4-7.73,2.39-11.62,2.77-4.27.41-4.1-2.72-3.51-5.12,1.25-5.1,6.33-3.02,10.41-3.04Z"/>
  <path class="cls-2" d="m642.82,203.81c4.6-.2,5.86,2.26,5.54,4.9-.67,5.51-7.29,3.11-11.09,3.85-4.17.81-4.5-2.31-4.3-4.75.43-5.18,5.8-3.6,9.85-4Z"/>
  <path class="cls-2" d="m663.82,203.89c4.58-.4,6.01,2,5.88,4.66-.27,5.53-7.05,3.42-10.8,4.32-4.11.99-4.66-2.11-4.63-4.56.06-5.19,5.53-3.85,9.55-4.42Z"/>
  <path class="cls-2" d="m684.13,203.56c4.53-.63,6.17,1.7,6.26,4.35.2,5.53-6.75,3.77-10.41,4.85-4.02,1.19-4.83-1.87-5.01-4.32-.38-5.18,5.2-4.12,9.16-4.89Z"/>
  <path class="cls-2" d="m705.36,203.56c4.53-.63,6.17,1.7,6.26,4.35.2,5.53-6.75,3.77-10.41,4.85-4.02,1.19-4.83-1.87-5.01-4.32-.38-5.18,5.2-4.12,9.16-4.89Z"/>
  <path class="cls-2" d="m727.17,202.36c4.53-.63,6.17,1.7,6.26,4.35.2,5.53-6.75,3.77-10.41,4.85-4.02,1.19-4.83-1.87-5.01-4.32-.38-5.18,5.2-4.12,9.16-4.89Z"/>
  <path class="cls-2" d="m748.69,200.23c4.53-.63,6.17,1.7,6.26,4.35.2,5.53-6.75,3.77-10.41,4.85-4.02,1.19-4.83-1.87-5.01-4.32-.38-5.18,5.2-4.12,9.16-4.89Z"/>
  <text/>
</svg>