<?xml version="1.0" encoding="UTF-8"?>
<svg id="Layer_1" data-name="Layer 1" xmlns="http://www.w3.org/2000/svg" viewBox="0 0 1270.08 158.88">
  <defs>
    <style>
      .cls-1 {
        fill: #31a0c5;
      }

      .cls-2 {
        fill: #e8595a;
      }
    </style>
  </defs>
  <path class="cls-2" d="m15.04,54.5c7.56-1.3,10.52,2.52,10.92,6.98.82,9.29-11.01,6.69-17.06,8.72-6.64,2.22-8.29-2.89-8.8-6.99-1.1-8.69,8.37-7.2,14.95-8.71Z"/>
  <path class="cls-2" d="m51.09,48.34c7.39-1.81,10.77,1.8,11.66,6.22,1.87,9.2-10.21,7.41-16.01,9.83-6.37,2.66-8.58-2.32-9.56-6.37-2.08-8.59,7.52-7.74,13.91-9.69Z"/>
  <path class="cls-2" d="m86.4,41.39c7.41-1.76,10.74,1.88,11.59,6.3,1.76,9.21-10.3,7.34-16.13,9.72-6.4,2.62-8.55-2.38-9.49-6.43-1.98-8.6,7.61-7.68,14.02-9.59Z"/>
  <path class="cls-2" d="m121.85,35.24c7.4-1.79,10.76,1.83,11.64,6.24,1.83,9.2-10.24,7.39-16.05,9.8-6.38,2.65-8.57-2.34-9.54-6.39-2.05-8.59,7.55-7.72,13.95-9.66Z"/>
  <path class="cls-2" d="m156.73,28.92c7.38-1.82,10.77,1.78,11.69,6.19,1.91,9.19-10.18,7.43-15.97,9.87-6.36,2.68-8.59-2.3-9.58-6.34-2.11-8.58,7.49-7.75,13.87-9.72Z"/>
  <path class="cls-2" d="m191.29,22.3c7.54-1.37,10.56,2.42,11.03,6.88.97,9.28-10.9,6.8-16.92,8.88-6.61,2.29-8.33-2.81-8.92-6.9-1.24-8.68,8.25-7.28,14.81-8.85Z"/>
  <path class="cls-2" d="m226.72,16.46c7.63-1.06,10.38,2.85,10.54,7.32.33,9.3-11.36,6.34-17.51,8.17-6.76,2.01-8.12-3.15-8.43-7.26-.64-8.72,8.74-6.93,15.4-8.23Z"/>
  <path class="cls-2" d="m259.47,11.67c7.63-1.06,10.38,2.85,10.54,7.32.33,9.3-11.36,6.34-17.51,8.17-6.76,2.01-8.12-3.15-8.43-7.26-.64-8.72,8.74-6.93,15.4-8.23Z"/>
  <path class="cls-2" d="m293.83,6.08c7.63-1.06,10.38,2.85,10.54,7.32.33,9.3-11.36,6.34-17.51,8.17-6.76,2.01-8.12-3.15-8.43-7.26-.64-8.72,8.74-6.93,15.4-8.23Z"/>
  <path class="cls-2" d="m327.64,2.29c7.63-1.06,10.38,2.85,10.54,7.32.33,9.3-11.36,6.34-17.51,8.17-6.76,2.01-8.12-3.15-8.43-7.26-.64-8.72,8.74-6.93,15.4-8.23Z"/>
  <path class="cls-2" d="m364.25.46c7.75.07,9.5,4.31,8.56,8.72-1.94,9.19-12.7,4.57-19.19,5.47-7.13.99-7.21-4.28-6.51-8.36,1.5-8.66,10.27-5.53,17.13-5.84Z"/>
  <path class="cls-2" d="m400.56.62c7.74.34,9.24,4.64,8.04,9.01-2.48,9.11-12.95,4.12-19.49,4.8-7.18.74-6.95-4.52-6.01-8.57,2-8.6,10.59-5.17,17.46-5.24Z"/>
  <path class="cls-2" d="m436.9,3.24c7.73.42,9.16,4.73,7.89,9.09-2.63,9.08-13.02,3.99-19.57,4.6-7.19.67-6.88-4.59-5.87-8.63,2.15-8.58,10.67-5.06,17.54-5.06Z"/>
  <path class="cls-2" d="m471.79,7.17c7.71.63,8.94,4.98,7.47,9.3-3.04,9.01-13.19,3.64-19.77,4.07-7.21.47-6.66-4.78-5.47-8.79,2.53-8.51,10.9-4.77,17.76-4.58Z"/>
  <path class="cls-2" d="m510.11,17.21c6.84,2.81,5.88,7.2,2.42,10.79-7.19,7.47-14-.44-20.3-1.94-6.92-1.65-3.87-6.36-.82-9.73,6.47-7.16,12.41-1.27,18.69.89Z"/>
  <path class="cls-2" d="m543.32,29.87c6.72,2.98,5.57,7.34,1.96,10.84-7.5,7.28-13.97-.8-20.21-2.46-6.84-1.82-3.59-6.45-.4-9.75,6.78-6.99,12.46-.95,18.64,1.36Z"/>
  <path class="cls-2" d="m575.82,41.63c6.67,3.05,5.44,7.4,1.77,10.86-7.63,7.2-13.95-.95-20.16-2.67-6.81-1.9-3.48-6.49-.23-9.75,6.9-6.92,12.48-.82,18.62,1.56Z"/>
  <path class="cls-2" d="m607.31,53.15c6.87,2.77,5.94,7.17,2.52,10.78-7.12,7.51-14-.37-20.32-1.84-6.93-1.61-3.92-6.34-.9-9.73,6.41-7.19,12.4-1.33,18.7.79Z"/>
  <path class="cls-2" d="m641.07,64.8c7.1,2.4,6.57,6.83,3.48,10.61-6.43,7.87-14,.38-20.43-.75-7.06-1.24-4.48-6.11-1.77-9.66,5.75-7.52,12.25-1.99,18.72-.21Z"/>
  <path class="cls-2" d="m674.52,74.71c7.31,1.98,7.21,6.43,4.5,10.38-5.65,8.22-13.92,1.19-20.45.44-7.16-.82-5.06-5.83-2.71-9.52,5-7.83,12.02-2.7,18.65-1.3Z"/>
  <path class="cls-2" d="m707.77,83.37c7.31,2,7.19,6.45,4.47,10.39-5.67,8.21-13.93,1.16-20.45.4-7.16-.84-5.04-5.84-2.67-9.53,5.03-7.82,12.03-2.68,18.65-1.26Z"/>
  <path class="cls-2" d="m738.85,90.69c7.31,2,7.19,6.45,4.47,10.39-5.67,8.21-13.93,1.16-20.45.4-7.16-.84-5.04-5.84-2.67-9.53,5.03-7.82,12.03-2.68,18.65-1.26Z"/>
  <path class="cls-2" d="m902.5,106.96c7.73.44,9.14,4.75,7.86,9.11-2.67,9.08-13.04,3.96-19.59,4.56-7.19.65-6.86-4.61-5.83-8.65,2.18-8.57,10.69-5.04,17.56-5.02Z"/>
  <path class="cls-2" d="m938.79,111.16c7.73.47,9.11,4.79,7.8,9.14-2.73,9.07-13.06,3.91-19.62,4.48-7.2.62-6.83-4.64-5.77-8.67,2.24-8.56,10.73-4.99,17.6-4.95Z"/>
  <path class="cls-2" d="m975.69,115.3c7.69.72,8.83,5.08,7.28,9.39-3.23,8.97-13.27,3.48-19.85,3.83-7.22.38-6.57-4.86-5.29-8.85,2.71-8.48,10.99-4.63,17.85-4.37Z"/>
  <path class="cls-2" d="m1011.54,118.8c7.73.41,9.16,4.73,7.9,9.09-2.63,9.08-13.02,4-19.57,4.61-7.19.67-6.88-4.59-5.87-8.63,2.14-8.58,10.67-5.06,17.54-5.07Z"/>
  <path class="cls-2" d="m1047.33,120.56c7.73.4,9.18,4.71,7.93,9.07-2.59,9.09-13,4.03-19.55,4.65-7.19.69-6.9-4.58-5.9-8.62,2.11-8.58,10.65-5.09,17.52-5.11Z"/>
  <path class="cls-2" d="m1081.42,122.06c7.74-.34,9.86,3.8,9.32,8.25-1.12,9.27-12.26,5.23-18.66,6.48-7.02,1.37-7.57-3.88-7.23-7.99.73-8.72,9.76-6.06,16.57-6.74Z"/>
  <path class="cls-2" d="m1116.75,122.2c7.7-.67,10.11,3.37,9.89,7.84-.46,9.3-11.87,5.75-18.17,7.27-6.91,1.66-7.84-3.55-7.79-7.67.1-8.73,9.31-6.47,16.06-7.44Z"/>
  <path class="cls-2" d="m1150.92,121.64c7.63-1.06,10.38,2.85,10.54,7.32.33,9.3-11.36,6.34-17.51,8.17-6.76,2.01-8.12-3.15-8.43-7.26-.64-8.72,8.74-6.93,15.4-8.23Z"/>
  <path class="cls-2" d="m1186.65,121.64c7.63-1.06,10.38,2.85,10.54,7.32.33,9.3-11.36,6.34-17.51,8.17-6.76,2.01-8.12-3.15-8.43-7.26-.64-8.72,8.74-6.93,15.4-8.23Z"/>
  <path class="cls-2" d="m1223.33,119.62c7.63-1.06,10.38,2.85,10.54,7.32.33,9.3-11.36,6.34-17.51,8.17-6.76,2.01-8.12-3.15-8.43-7.26-.64-8.72,8.74-6.93,15.4-8.23Z"/>
  <path class="cls-2" d="m1259.54,116.04c7.63-1.06,10.38,2.85,10.54,7.32.33,9.3-11.36,6.34-17.51,8.17-6.76,2.01-8.12-3.15-8.43-7.26-.64-8.72,8.74-6.93,15.4-8.23Z"/>
  <g>
    <path class="cls-1" d="m815.48,158.4c-39.05,2.88-62.08-30-60.55-54.53,1.96-31.39,19.55-64.11,50.92-62.05,43.45,2.86,65.86,27.33,68.78,64.76,1.81,23.19-31.1,56.75-59.15,51.83Zm4.57-11.21c33.58.31,49.87-21.67,39.88-53.42-7.58-24.11-25.05-35.79-48.8-40.05-22.06-3.96-41.08,9.14-44.69,30.86-6.21,37.34,15.13,62.26,53.61,62.61Z"/>
    <path class="cls-1" d="m778.74,94.56c.21-3.93.1-7.9.72-11.76.61-3.77,3.14-7.1,7.05-6.63,4.64.56,2.93,4.91,2.48,7.68-2.03,12.27.77,23.37,7.13,33.86,4.83,7.97,11.72,13.77,20.97,12.51,9.25-1.26,16.47-7.66,19.89-16.57,3.09-8.08,4.34-16.71,2.86-25.53-.77-4.58-.21-9.56,5.4-9.9,5.95-.36,6,4.87,6.17,9.32.9,23.78-10.91,40.49-30.17,52.41-10.04,6.22-26.41.06-33.63-11.77-6.28-10.28-10.32-21.25-8.85-33.63Z"/>
    <path class="cls-1" d="m803.96,87.1c.81-5.48-.61-10.32,2.11-14.57,1.53-2.38,3.34-4.48,6.55-3.69,3.84.95,2.74,3.88,2.52,6.57-.48,5.78-.57,11.6-1.15,17.37-.39,3.91-1.48,8.67-6.02,8.64-4.72-.03-3.64-5.01-3.96-8.27-.23-2.31-.04-4.66-.04-6.05Z"/>
    <path class="cls-1" d="m831.84,80.19c-2.13,5.49.44,15.17-7.53,16.16-5.55.69-2.91-7.44-3.57-11.59-.87-5.4.69-10.64,6.81-11.6,4.11-.65,4.54,3.29,4.3,7.04Z"/>
  </g>
</svg>