<?xml version="1.0" encoding="UTF-8"?>
<svg id="Layer_1" data-name="Layer 1" xmlns="http://www.w3.org/2000/svg" viewBox="0 0 110.16 8.52">
  <defs>
    <style>
      .cls-1 {
        fill: #7ec679;
      }
    </style>
  </defs>
  <path class="cls-1" d="m20.32,3.95c1.17-5.15,1.71-4.34,5.94-2.19,2.36,1.2,4.99,2.05,7.46,3.11.89.38,1.37.37,1.48-.52.03-.2.03-.42.14-.58.6-.88.74-2.55,2.27-2.21,1.64.37.03,1.58-.12,2.33-.84,4.41-1.41,4.55-6.3,2.32-2.37-1.08-4.86-1.97-7.27-3-.99-.42-1.53-.36-1.64.62-.03.26-.16.52-.26.77-.91,2.21-1.46,2.32-3.66.83-1.38-.94-2.68-1.98-4.31-2.67-1.06-.45-1.66-.41-1.73.75-.06,1.06-.27,2.12-.55,3.15-.39,1.47-1.31,2-3.16,1.13-2.55-1.2-4.46-2.95-6.42-4.64C1.37,2.44-1.16,1.84.62.45c1.75-1.37,2.34.74,3.34,1.34,1.78,1.07,3.03,2.62,4.92,3.62,1.17.62,1.64.38,1.62-.7,0-.07,0-.13,0-.2.04-1.52-.29-3.33,1.72-4.1,2.15-.82,3.64.76,5.22,1.64.94.52,1.77,1.16,2.86,1.89Z"/>
  <path class="cls-1" d="m55.88,3.95c1.17-5.15,1.71-4.34,5.94-2.19,2.36,1.2,4.99,2.05,7.46,3.11.89.38,1.37.37,1.48-.52.03-.2.03-.42.14-.58.6-.88.74-2.55,2.27-2.21,1.64.37.03,1.58-.12,2.33-.84,4.41-1.41,4.55-6.3,2.32-2.37-1.08-4.86-1.97-7.27-3-.99-.42-1.53-.36-1.64.62-.03.26-.16.52-.26.77-.91,2.21-1.46,2.32-3.66.83-1.38-.94-2.68-1.98-4.31-2.67-1.06-.45-1.66-.41-1.73.75-.06,1.06-.27,2.12-.55,3.15-.39,1.47-1.31,2-3.16,1.13-2.55-1.2-4.46-2.95-6.42-4.64-.83-.72-3.36-1.32-1.58-2.71,1.75-1.37,2.34.74,3.34,1.34,1.78,1.07,3.03,2.62,4.92,3.62,1.17.62,1.64.38,1.62-.7,0-.07,0-.13,0-.2.04-1.52-.29-3.33,1.72-4.1,2.15-.82,3.64.76,5.22,1.64.94.52,1.77,1.16,2.86,1.89Z"/>
  <path class="cls-1" d="m92.13,4.25c1.17-5.15,1.71-4.34,5.94-2.19,2.36,1.2,4.99,2.05,7.46,3.11.89.38,1.37.37,1.48-.52.03-.2.03-.42.14-.58.6-.88.74-2.55,2.27-2.21,1.64.37.03,1.58-.12,2.33-.84,4.41-1.41,4.55-6.3,2.32-2.37-1.08-4.86-1.97-7.27-3-.99-.42-1.53-.36-1.64.62-.03.26-.16.52-.26.77-.91,2.21-1.46,2.32-3.66.83-1.38-.94-2.68-1.98-4.31-2.67-1.06-.45-1.66-.41-1.73.75-.06,1.06-.27,2.12-.55,3.15-.39,1.47-1.31,2-3.16,1.13-2.55-1.2-4.46-2.95-6.42-4.64-.83-.72-3.36-1.32-1.58-2.71,1.75-1.37,2.34.74,3.34,1.34,1.78,1.07,3.03,2.62,4.92,3.62,1.17.62,1.64.38,1.62-.7,0-.07,0-.13,0-.2.04-1.52-.29-3.33,1.72-4.1,2.15-.82,3.64.76,5.22,1.64.94.52,1.77,1.16,2.86,1.89Z"/>
</svg>