<?xml version="1.0" encoding="UTF-8"?>
<svg id="Layer_1" data-name="Layer 1" xmlns="http://www.w3.org/2000/svg" viewBox="0 0 136.32 72.48">
  <defs>
    <style>
      .cls-1 {
        fill: #fff;
      }
    </style>
  </defs>
  <path class="cls-1" d="m4.33,27.16c0-.56,0-1.09,0-1.61,0-2.79,0-2.81,2.54-3.84,4.9-1.97,9.87-3.75,15.04-4.9,4-.89,8.01-1.7,12.08-2.23,2.62-.35,5.23-.82,7.87-1.08,1.82-.18,3.65-.34,5.48-.49,8.21-.68,16.45-.55,24.67-.41,3.88.07,7.78.34,11.66.8,2.19.26,4.39.43,6.58.73,3.32.45,6.64.96,9.94,1.56,5.4.98,10.7,2.31,15.88,4.12,1.51.53,2.97,1.21,4.48,1.76.39.14.54.29.53.7-.02.94,0,1.89,0,2.88-3.63-1.12-5.91.96-7.83,3.38-2.78,3.52-4.05,7.69-4.42,12.12-.05.63-.27.75-.82.74-1.29-.03-2.57-.04-3.86,0-.82.03-1-.33-1.03-1.08-.15-4.12-.99-8.08-2.98-11.72-1.23-2.25-2.76-4.22-5.24-5.32-2.47-1.1-5.38-.31-7.17,1.39-3.14,2.98-4.65,6.78-5.5,10.93-.36,1.73-.51,3.47-.66,5.21-.04.44-.2.58-.62.58-2.08,0-4.16,0-6.24,0-.4,0-.61-.1-.64-.56-.28-3.69-.89-7.33-2.06-10.84-1.11-3.33-2.46-6.51-5.3-8.89-2.19-1.84-5.3-1.65-7.57.6-2.3,2.28-3.57,5.16-4.55,8.14-1.17,3.55-1.83,7.22-2.08,10.95-.04.53-.29.6-.72.6-2.5,0-5-.01-7.49,0-.49,0-.65-.17-.67-.66-.15-3.73-.87-7.33-2.48-10.72-1.29-2.72-2.91-5.24-5.78-6.46-3.13-1.32-6.17.02-8.27,2.54-2.9,3.46-4.08,7.64-4.77,11.99-.13.84-.15,1.71-.23,2.57-.06.63-.29.75-.83.73-.98-.03-1.97-.05-2.95,0-.86.05-1.12-.29-1.27-1.13-.75-4.25-2.1-8.25-5.31-11.36-1.95-1.88-4.12-3.01-6.89-1.82-.13.06-.29.05-.49.09Z"/>
  <path class="cls-1" d="m50.43,59.08c0-3.14,0-6.28,0-9.41,0-1.49.61-2.12,2.11-2.17.42-.01.83-.03,1.25,0,1.31.11,1.87.71,1.87,2.03,0,5.22.03,10.43-.02,15.65,0,.97.29,1.18,1.21,1.18.89,0,1.14-.25,1.13-1.14-.04-5.1-.02-10.21-.02-15.31,0-1.53.57-2.15,2.09-2.15,4.58-.02,9.15-.02,13.73,0,1.56,0,2.08.76,2.07,2.78,0,1.56-.72,2.36-2.17,2.37-3.18.02-6.36.03-9.53-.01-.78,0-1.1.19-1.03,1.01.06.75.05,1.51,0,2.27-.05.71.23.91.91.89,1.97-.04,3.93,0,5.9-.02.87,0,1.81.12,2.13.95.35.89.41,1.99-.03,2.85-.54,1.05-1.78.82-2.74.88-1.73.11-3.48.06-5.22.02-.74-.02-1.03.21-.96.96.1,1.08-.44,2.48.2,3.18.66.72,2.07.21,3.15.23,2.27.04,4.54.01,6.81.01,2,0,2.54.47,2.56,2.26.03,2.13-.63,2.88-2.62,2.9-2,.02-4.01.03-6.01,0-4.57-.05-9.13-.03-13.69-.24-2.15-.1-3.14-.05-3.09-3.13.05-2.95.01-5.9.01-8.85Z"/>
  <path class="cls-1" d="m96.25,49.97c4.36-2.53,8.58-1.93,12.72.6.14-.77.12-1.65,1.06-1.92,1.25-.36,2.51-.51,3.62.42.91.75,1.42,1.82,2.16,2.72.19.23.29.56.69.37,0,0,.02,0,.02,0-.32.43.06.67.26.95,2.19,3.05,4.39,6.09,6.58,9.13-.03,2.65-.06,5.3-.09,7.95-2.28-3.09-4.53-6.2-6.84-9.27-.7-.93-1.16-2.07-2.18-2.75-.03-.09,0-.23-.15-.2-.03,0-.06.12-.06.19,0,3.93.02,7.86.03,11.78.02,1.41-1.04,1.98-2.32,2.03-1.39.05-2.63-.27-2.78-1.72-2.22,1.63-4.67,2.4-7.39,2.22-3.98-.25-7.07-2.03-9.2-5.41-.45-.71-1.08-1.35-1.07-2.28,1.81-.21,3.45-.86,4.98-1.84.42,1.52,1.5,2.56,2.75,3.37,1.21.79,2.58,1.18,4.05.85,3.31-.75,5.33-3.49,5.31-7-.03-4.1-4.86-8.43-9.33-5.62-.47-1.81-1.53-3.26-2.82-4.57Z"/>
  <path class="cls-1" d="m26.15,70.58c-3.84,2.05-7.55,1.95-11.08-.69-.34-.25-.46-.24-.81,0-3.64,2.5-7.45,2.59-11.26.5-1.24-.68-2.2-1.81-2.84-3.12-.47-.96.08-2.27,1.21-3.08.75-.54,2.12-.5,2.83.12.46.4.87.85,1.29,1.28,1.26,1.28,2.76,1.47,4.43.99,1.01-.29,1.52-1.06,1.62-1.94.09-.9-.52-1.61-1.4-1.93-1.11-.41-2.25-.73-3.37-1.13-1.85-.66-3.63-1.37-5.04-2.86-1.73-1.82-1.68-6.27-.11-8.16,2.08-2.51,4.74-3.31,7.94-2.87,1.47.2,2.9.67,4.44.55,1.37-.11,2.11.78,2.11,2.19.01,2.5.14,5-.04,7.48-.15,2.12.42,4.09.83,6.08.58,2.79,4.98,3.78,7.2,1.79.97-.87,1.46-1.98,1.82-3.18.3.32.15.72.16,1.08.03,2.3.04,4.6.05,6.91Zm-15.19-15.27c-.11-.55.27-1.29-.21-1.85-.92-1.08-3.31-1.24-4.41-.35-.82.66-.88,1.77-.12,2.53.81.81,1.88.95,2.92,1.2,1.83.44,1.82.46,1.82-1.52Z"/>
  <path class="cls-1" d="m26.15,70.58c-.01-2.3-.02-4.6-.05-6.91,0-.36.15-.76-.16-1.08.39-4.22.1-8.45.19-12.68.03-1.27.64-1.95,1.91-1.96,2.84-.02,5.7-.23,8.5.05,3.49.35,6.32,2.49,7.09,6.28.65,3.21-.11,6-2.5,8.29-.38.36-.38.66-.1,1.04.79,1.09,1.54,2.2,2.36,3.27,1.44,1.9.46,4.3-1.93,4.67-.93.14-1.6-.36-2.1-1.04-1.2-1.66-2.39-3.33-3.5-5.06-.44-.69-.91-.96-1.72-.95-2.77.04-2.77,0-2.77,2.76,0,.42.04.84,0,1.25-.12.97.05,2.09-1.05,2.64-1.31.67-2.6.55-3.81-.27-.12-.08-.23-.2-.34-.3Zm5.17-14.34s.03,0,.04,0c0,.64.05,1.29-.01,1.92-.08.84.14,1.24,1.09,1.15,1.05-.09,2.11-.02,3.17-.02,1.74-.01,3.11-1.25,2.99-2.93-.13-1.88-.93-2.98-2.9-3.19-.41-.04-.83-.03-1.24,0-1,.07-2.33-.45-2.91.23-.5.58-.18,1.86-.22,2.83Z"/>
  <path class="cls-1" d="m96.29,62.94c-1.52.98-3.17,1.63-4.98,1.84-1.21,0-2.42.01-3.63-.04-.68-.03-.94.16-.91.88.06,1.17.05,2.35,0,3.52-.04.91-.16,1.88-1.13,2.28-1.18.49-2.42.56-3.55-.18-.43-.28-.54-.77-.54-1.29,0-6.62,0-13.24.01-19.86,0-1.17.73-1.91,1.89-1.92,2.73-.02,5.45-.07,8.17.02,1.47.05,2.86.58,4.05,1.5.18.14.32.32.58.28,1.28,1.31,2.34,2.76,2.82,4.57.07.51.18,1.03.2,1.54.14,2.78-1.04,4.99-2.99,6.86Zm-3.87-9.13c-1.72-.83-3.54-.28-5.31-.37-.44-.02-.31.44-.31.71-.01,1.54.02,3.09-.02,4.63-.02.63.25.76.8.74,1.02-.04,2.03-.02,3.05-.03,1.77.09,3.06-.74,3.38-2.26.3-1.41-.33-3.13-1.59-3.42Z"/>
  <path class="cls-1" d="m116.51,52.14s-.02,0-.02,0c-.67-.87-.47-1.89-.37-2.84.08-.74.67-1.14,1.45-1.14,5.75,0,11.49,0,17.24,0,.94,0,1.42.55,1.48,1.49.18,2.52-.32,3.04-2.87,3.05-1.13,0-2.27.05-3.4-.02-.81-.05-1.01.23-1.01,1.01.03,5.21,0,10.43.03,15.64,0,1.1-.14,2.04-1.36,2.41-1.7.51-3.15.18-3.88-.86-.17-.24-.35-.48-.53-.72.03-2.65.06-5.3.09-7.95.07-.12.19-.25.19-.37.01-2.83,0-5.66.02-8.48,0-.6-.29-.67-.77-.66-1.47.02-2.94,0-4.41,0-.69,0-1.34-.09-1.88-.57Z"/>
  <path class="cls-1" d="m78.15.02c3.46-.28,5.73,2.85,5.76,5.51.04,3.34-3.05,5.87-5.81,5.73-3.29-.18-5.56-2.48-5.61-5.62-.05-3.24,2.63-5.92,5.66-5.62Z"/>
  <path class="cls-1" d="m42.46,6.14c-.16-3.36,2.8-5.68,5.65-5.67,3.17.02,5.91,2.69,5.72,5.74-.22,3.51-2.79,5.65-5.77,5.65-3.14,0-5.7-2.51-5.6-5.72Z"/>
  <path class="cls-1" d="m103.32,11.56c-.42-2.37,2.29-4.88,4.78-4.81,2.43.06,4.86,2.16,4.78,4.78-.09,2.89-1.83,4.72-4.79,4.86-2.6.12-5.12-2.3-4.76-4.82Z"/>
  <path class="cls-1" d="m12.7,11.53c-.41-2.28,2.24-4.9,4.79-4.76,2.61.14,4.7,2.11,4.77,4.77.07,2.59-2.32,4.95-4.79,4.87-2.74-.08-5.08-2.25-4.77-4.89Z"/>
  <path class="cls-1" d="m90.63,59.49c-.03-2.09.76-3.92,1.79-5.68,1.26.29,1.89,2.01,1.59,3.42-.32,1.51-1.6,2.34-3.38,2.26Z"/>
</svg>