<?xml version="1.0" encoding="UTF-8"?>
<svg id="Layer_1" data-name="Layer 1" xmlns="http://www.w3.org/2000/svg" viewBox="0 0 285.96 16.24">
  <defs>
    <style>
      .cls-1 {
        fill: #31a0c5;
      }
    </style>
  </defs>
  <path class="cls-1" d="m31.9,7.54c1.84-9.82,2.69-8.27,9.33-4.18,3.71,2.29,7.84,3.91,11.72,5.94,1.4.73,2.15.71,2.33-.99.04-.38.05-.8.22-1.11.94-1.68,1.16-4.87,3.56-4.22,2.58.7.04,3.01-.19,4.45-1.33,8.41-2.21,8.67-9.89,4.43-3.72-2.05-7.63-3.76-11.41-5.72-1.56-.81-2.4-.69-2.57,1.18-.05.5-.25.98-.41,1.47-1.42,4.22-2.3,4.43-5.75,1.58-2.17-1.79-4.21-3.77-6.77-5.08-1.66-.86-2.61-.78-2.71,1.44-.09,2.01-.43,4.03-.86,6.01-.62,2.81-2.06,3.81-4.96,2.16-4.01-2.28-7.01-5.63-10.09-8.85C2.15,4.66-1.82,3.52.97.87c2.75-2.61,3.68,1.41,5.25,2.55,2.79,2.03,4.76,5,7.73,6.91,1.84,1.19,2.57.72,2.55-1.33,0-.13,0-.25,0-.38.07-2.9-.45-6.35,2.71-7.81,3.37-1.56,5.71,1.46,8.2,3.13,1.47.99,2.78,2.22,4.49,3.6Z"/>
  <path class="cls-1" d="m87.75,7.54c1.84-9.82,2.69-8.27,9.33-4.18,3.71,2.29,7.84,3.91,11.72,5.94,1.4.73,2.15.71,2.33-.99.04-.38.05-.8.22-1.11.94-1.68,1.16-4.87,3.56-4.22,2.58.7.04,3.01-.19,4.45-1.33,8.41-2.21,8.67-9.89,4.43-3.72-2.05-7.63-3.76-11.41-5.72-1.56-.81-2.4-.69-2.57,1.18-.05.5-.25.98-.41,1.47-1.42,4.22-2.3,4.43-5.75,1.58-2.17-1.79-4.21-3.77-6.77-5.08-1.66-.86-2.61-.78-2.71,1.44-.09,2.01-.43,4.03-.86,6.01-.62,2.81-2.06,3.81-4.96,2.16-4.01-2.28-7.01-5.63-10.09-8.85-1.31-1.37-5.28-2.51-2.49-5.16,2.75-2.61,3.68,1.41,5.25,2.55,2.79,2.03,4.76,5,7.73,6.91,1.84,1.19,2.57.72,2.55-1.33,0-.13,0-.25,0-.38.07-2.9-.45-6.35,2.71-7.81,3.37-1.56,5.71,1.46,8.2,3.13,1.47.99,2.78,2.22,4.49,3.6Z"/>
  <path class="cls-1" d="m144.66,8.1c1.84-9.82,2.69-8.27,9.33-4.18,3.71,2.29,7.84,3.91,11.72,5.94,1.4.73,2.15.71,2.33-.99.04-.38.05-.8.22-1.11.94-1.68,1.16-4.87,3.56-4.22,2.58.7.04,3.01-.19,4.45-1.33,8.41-2.21,8.67-9.89,4.43-3.72-2.05-7.63-3.76-11.41-5.72-1.56-.81-2.4-.69-2.57,1.18-.05.5-.25.98-.41,1.47-1.42,4.22-2.3,4.43-5.75,1.58-2.17-1.79-4.21-3.77-6.77-5.08-1.66-.86-2.61-.78-2.71,1.44-.09,2.01-.43,4.03-.86,6.01-.62,2.81-2.06,3.81-4.96,2.16-4.01-2.28-7.01-5.63-10.09-8.85-1.31-1.37-5.28-2.51-2.49-5.16,2.75-2.61,3.68,1.41,5.25,2.55,2.79,2.03,4.76,5,7.73,6.91,1.84,1.19,2.57.72,2.55-1.33,0-.13,0-.25,0-.38.07-2.9-.45-6.35,2.71-7.81,3.37-1.56,5.71,1.46,8.2,3.13,1.47.99,2.78,2.22,4.49,3.6Z"/>
  <path class="cls-1" d="m200.51,7.56c1.84-9.12,2.69-7.68,9.33-3.88,3.71,2.12,7.84,3.63,11.72,5.52,1.4.68,2.15.66,2.33-.92.04-.35.05-.74.22-1.04.94-1.56,1.16-4.52,3.56-3.92,2.58.65.04,2.79-.19,4.13-1.33,7.81-2.21,8.05-9.89,4.11-3.72-1.91-7.63-3.49-11.41-5.31-1.56-.75-2.4-.64-2.57,1.09-.05.46-.25.91-.41,1.36-1.42,3.92-2.3,4.12-5.75,1.46-2.17-1.67-4.21-3.5-6.77-4.72-1.66-.8-2.61-.72-2.71,1.33-.09,1.87-.43,3.75-.86,5.58-.62,2.61-2.06,3.54-4.96,2.01-4.01-2.12-7.01-5.23-10.09-8.22-1.31-1.27-5.28-2.33-2.49-4.8,2.75-2.42,3.68,1.31,5.25,2.37,2.79,1.89,4.76,4.64,7.73,6.42,1.84,1.1,2.57.67,2.55-1.23,0-.12,0-.24,0-.35.07-2.7-.45-5.9,2.71-7.26,3.37-1.45,5.71,1.35,8.2,2.91,1.47.92,2.78,2.06,4.49,3.34Z"/>
  <path class="cls-1" d="m257.64,8.12c1.84-9.12,2.69-7.68,9.33-3.88,3.71,2.12,7.84,3.63,11.72,5.52,1.4.68,2.15.66,2.33-.92.04-.35.05-.74.22-1.04.94-1.56,1.16-4.52,3.56-3.92,2.58.65.04,2.79-.19,4.13-1.33,7.81-2.21,8.05-9.89,4.11-3.72-1.91-7.63-3.49-11.41-5.31-1.56-.75-2.4-.64-2.57,1.09-.05.46-.25.91-.41,1.36-1.42,3.92-2.3,4.12-5.75,1.46-2.17-1.67-4.21-3.5-6.77-4.72-1.66-.8-2.61-.72-2.71,1.33-.09,1.87-.43,3.75-.86,5.58-.62,2.61-2.06,3.54-4.96,2.01-4.01-2.12-7.01-5.23-10.09-8.22-1.31-1.27-5.28-2.33-2.49-4.8,2.75-2.42,3.68,1.31,5.25,2.37,2.79,1.89,4.76,4.64,7.73,6.42,1.84,1.1,2.57.67,2.55-1.23,0-.12,0-.24,0-.35.07-2.7-.45-5.9,2.71-7.26,3.37-1.45,5.71,1.35,8.2,2.91,1.47.92,2.78,2.06,4.49,3.34Z"/>
</svg>